<svg width="163" height="16" viewBox="0 0 163 16" fill="none" xmlns="http://www.w3.org/2000/svg">
<path d="M1.066 13V6.617H2.301L2.418 7.579H2.47C2.77333 7.267 3.107 7.00267 3.471 6.786C3.84367 6.56933 4.277 6.461 4.771 6.461C5.50767 6.461 6.04933 6.68633 6.396 7.137C6.74267 7.58767 6.916 8.22467 6.916 9.048V13H5.408V9.243C5.408 8.73167 5.317 8.35467 5.135 8.112C4.953 7.86933 4.64533 7.748 4.212 7.748C3.9 7.748 3.62267 7.82167 3.38 7.969C3.13733 8.11633 2.86867 8.34167 2.574 8.645V13H1.066ZM11.4349 13.156C10.8716 13.156 10.3473 13.026 9.86192 12.766C9.37659 12.4973 8.98226 12.116 8.67892 11.622C8.37559 11.1193 8.22392 10.517 8.22392 9.815C8.22392 9.10433 8.37559 8.502 8.67892 8.008C8.98226 7.50533 9.37659 7.124 9.86192 6.864C10.3473 6.59533 10.8716 6.461 11.4349 6.461C11.9983 6.461 12.5226 6.59533 13.0079 6.864C13.4933 7.124 13.8876 7.50533 14.1909 8.008C14.4943 8.502 14.6459 9.10433 14.6459 9.815C14.6459 10.517 14.4943 11.1193 14.1909 11.622C13.8876 12.116 13.4933 12.4973 13.0079 12.766C12.5226 13.026 11.9983 13.156 11.4349 13.156ZM11.4349 11.934C11.7816 11.934 12.0806 11.8473 12.3319 11.674C12.5833 11.5007 12.7739 11.2537 12.9039 10.933C13.0339 10.6123 13.0989 10.2397 13.0989 9.815C13.0989 9.39033 13.0339 9.01767 12.9039 8.697C12.7739 8.37633 12.5833 8.12933 12.3319 7.956C12.0806 7.774 11.7816 7.683 11.4349 7.683C11.0883 7.683 10.7893 7.774 10.5379 7.956C10.2953 8.12933 10.1046 8.37633 9.96592 8.697C9.83592 9.01767 9.77092 9.39033 9.77092 9.815C9.77092 10.2397 9.83592 10.6123 9.96592 10.933C10.1046 11.2537 10.2953 11.5007 10.5379 11.674C10.7893 11.8473 11.0883 11.934 11.4349 11.934ZM18.1118 13.156C17.3665 13.156 16.8248 12.9307 16.4868 12.48C16.1488 12.0293 15.9798 11.3923 15.9798 10.569V6.617H17.4748V10.374C17.4748 10.8853 17.5615 11.2623 17.7348 11.505C17.9168 11.7477 18.2288 11.869 18.6708 11.869C18.9655 11.869 19.2342 11.7997 19.4768 11.661C19.7282 11.5137 19.9925 11.2667 20.2698 10.92V6.617H21.7648V13H20.5428L20.4258 11.986H20.3738C20.0705 12.3327 19.7368 12.6143 19.3728 12.831C19.0088 13.0477 18.5885 13.156 18.1118 13.156ZM23.6708 13V6.617H24.9058L25.0228 7.579H25.0748C25.3781 7.267 25.7118 7.00267 26.0758 6.786C26.4484 6.56933 26.8818 6.461 27.3758 6.461C28.1124 6.461 28.6541 6.68633 29.0008 7.137C29.3474 7.58767 29.5208 8.22467 29.5208 9.048V13H28.0128V9.243C28.0128 8.73167 27.9218 8.35467 27.7398 8.112C27.5578 7.86933 27.2501 7.748 26.8168 7.748C26.5048 7.748 26.2274 7.82167 25.9848 7.969C25.7421 8.11633 25.4734 8.34167 25.1788 8.645V13H23.6708ZM40.4306 14.976V3.796H44.1616V4.615H41.6006V14.157H44.1616V14.976H40.4306ZM52.7965 13.156C52.1291 13.156 51.5268 13.026 50.9895 12.766C50.4608 12.4973 50.0405 12.116 49.7285 11.622C49.4251 11.1193 49.2735 10.517 49.2735 9.815C49.2735 9.10433 49.4381 8.502 49.7675 8.008C50.1055 7.50533 50.5518 7.124 51.1065 6.864C51.6611 6.59533 52.2591 6.461 52.9005 6.461C53.4205 6.461 53.8798 6.54767 54.2785 6.721C54.6771 6.88567 55.0065 7.098 55.2665 7.358L54.5515 8.294C54.3001 8.09467 54.0445 7.943 53.7845 7.839C53.5331 7.735 53.2645 7.683 52.9785 7.683C52.5538 7.683 52.1768 7.774 51.8475 7.956C51.5268 8.12933 51.2755 8.37633 51.0935 8.697C50.9115 9.01767 50.8205 9.39033 50.8205 9.815C50.8205 10.2397 50.9071 10.6123 51.0805 10.933C51.2625 11.2537 51.5095 11.5007 51.8215 11.674C52.1421 11.8473 52.5148 11.934 52.9395 11.934C53.3035 11.934 53.6371 11.8647 53.9405 11.726C54.2438 11.5873 54.5168 11.4227 54.7595 11.232L55.3835 12.194C55.0195 12.506 54.6121 12.7443 54.1615 12.909C53.7108 13.0737 53.2558 13.156 52.7965 13.156ZM60.0273 14.976V14.157H62.5883V4.615H60.0273V3.796H63.7583V14.976H60.0273Z" fill="black"/>
<path d="M85.756 14.976V3.796H89.487V4.615H86.926V14.157H89.487V14.976H85.756ZM97.4458 15.522V6.617H98.6808L98.7978 7.345H98.8368C99.1142 7.085 99.4305 6.87267 99.7858 6.708C100.15 6.54333 100.514 6.461 100.878 6.461C101.441 6.461 101.914 6.59533 102.295 6.864C102.676 7.13267 102.971 7.50967 103.179 7.995C103.387 8.48033 103.491 9.05233 103.491 9.711C103.491 10.439 103.357 11.0587 103.088 11.57C102.819 12.0813 102.468 12.4757 102.035 12.753C101.61 13.0217 101.151 13.156 100.657 13.156C100.371 13.156 100.072 13.091 99.7598 12.961C99.4565 12.831 99.1748 12.6447 98.9148 12.402H98.8758L98.9538 13.52V15.522H97.4458ZM100.345 11.921C100.648 11.921 100.921 11.8387 101.164 11.674C101.407 11.5093 101.597 11.2667 101.736 10.946C101.875 10.6167 101.944 10.2093 101.944 9.724C101.944 9.29933 101.892 8.93533 101.788 8.632C101.684 8.32867 101.524 8.099 101.307 7.943C101.099 7.77833 100.817 7.696 100.462 7.696C100.219 7.696 99.9722 7.75667 99.7208 7.878C99.4695 7.99933 99.2138 8.19433 98.9538 8.463V11.336C99.1878 11.544 99.4305 11.6957 99.6818 11.791C99.9332 11.8777 100.154 11.921 100.345 11.921ZM107.776 13V7.8H105.007V6.617H109.271V13H107.776ZM108.413 5.447C108.109 5.447 107.854 5.356 107.646 5.174C107.446 4.992 107.347 4.74933 107.347 4.446C107.347 4.14267 107.446 3.9 107.646 3.718C107.854 3.52733 108.109 3.432 108.413 3.432C108.725 3.432 108.98 3.52733 109.18 3.718C109.379 3.9 109.479 4.14267 109.479 4.446C109.479 4.74933 109.379 4.992 109.18 5.174C108.98 5.356 108.725 5.447 108.413 5.447ZM112.464 9.256V8.164H118.236V9.256H112.464ZM120.675 13V6.617H121.91L122.04 8.06H122.079C122.399 7.54 122.794 7.14567 123.262 6.877C123.738 6.59967 124.25 6.461 124.796 6.461C125.056 6.461 125.281 6.48267 125.472 6.526C125.662 6.56933 125.849 6.63433 126.031 6.721L125.719 7.982C125.511 7.91267 125.324 7.865 125.16 7.839C125.004 7.80433 124.804 7.787 124.562 7.787C124.128 7.787 123.704 7.91267 123.288 8.164C122.88 8.41533 122.512 8.853 122.183 9.477V13H120.675ZM129.575 13.156C129.159 13.156 128.79 13.078 128.47 12.922C128.149 12.7573 127.898 12.5363 127.716 12.259C127.534 11.9817 127.443 11.6567 127.443 11.284C127.443 10.5733 127.781 10.0317 128.457 9.659C129.141 9.27767 130.272 9.03067 131.85 8.918C131.832 8.684 131.767 8.47167 131.655 8.281C131.551 8.09033 131.39 7.943 131.174 7.839C130.957 7.72633 130.675 7.67 130.329 7.67C130.086 7.67 129.848 7.70033 129.614 7.761C129.38 7.82167 129.146 7.904 128.912 8.008C128.686 8.112 128.461 8.22467 128.236 8.346L127.69 7.345C127.95 7.189 128.236 7.046 128.548 6.916C128.86 6.77733 129.189 6.669 129.536 6.591C129.882 6.50433 130.238 6.461 130.602 6.461C131.2 6.461 131.698 6.56933 132.097 6.786C132.504 6.994 132.812 7.306 133.02 7.722C133.236 8.12933 133.345 8.62767 133.345 9.217V13H132.123L132.006 12.207H131.967C131.629 12.467 131.252 12.6923 130.836 12.883C130.428 13.065 130.008 13.156 129.575 13.156ZM130.03 11.986C130.35 11.986 130.658 11.9167 130.953 11.778C131.256 11.6307 131.555 11.44 131.85 11.206V9.854C131.087 9.906 130.489 9.99267 130.056 10.114C129.622 10.2267 129.319 10.374 129.146 10.556C128.972 10.738 128.886 10.9417 128.886 11.167C128.886 11.3577 128.938 11.5137 129.042 11.635C129.146 11.7563 129.28 11.8473 129.445 11.908C129.618 11.96 129.813 11.986 130.03 11.986ZM139.137 13.156C138.487 13.156 137.972 13.0433 137.59 12.818C137.209 12.584 136.936 12.2633 136.771 11.856C136.607 11.4487 136.524 10.9763 136.524 10.439V7.8H134.821V6.682L136.589 6.617L136.784 4.615H138.019V6.617H140.931V7.8H138.019V10.426C138.019 10.7727 138.067 11.063 138.162 11.297C138.258 11.5223 138.414 11.6913 138.63 11.804C138.847 11.908 139.133 11.96 139.488 11.96C139.766 11.96 140.017 11.9383 140.242 11.895C140.468 11.8517 140.684 11.791 140.892 11.713L141.178 12.792C140.892 12.8873 140.585 12.9697 140.255 13.039C139.926 13.117 139.553 13.156 139.137 13.156ZM145.879 13.156C145.229 13.156 144.64 13.026 144.111 12.766C143.583 12.4973 143.162 12.116 142.85 11.622C142.538 11.1193 142.382 10.5127 142.382 9.802C142.382 9.10867 142.538 8.515 142.85 8.021C143.162 7.51833 143.57 7.13267 144.072 6.864C144.575 6.59533 145.112 6.461 145.684 6.461C146.317 6.461 146.85 6.591 147.283 6.851C147.725 7.111 148.059 7.47067 148.284 7.93C148.518 8.38067 148.635 8.90067 148.635 9.49C148.635 9.63733 148.627 9.78033 148.609 9.919C148.601 10.049 148.588 10.1573 148.57 10.244H143.461V9.178H147.608L147.322 9.516C147.322 8.88333 147.179 8.411 146.893 8.099C146.616 7.77833 146.226 7.618 145.723 7.618C145.368 7.618 145.047 7.70033 144.761 7.865C144.484 8.02967 144.263 8.27667 144.098 8.606C143.934 8.92667 143.851 9.32533 143.851 9.802C143.851 10.296 143.942 10.7033 144.124 11.024C144.315 11.3447 144.575 11.5873 144.904 11.752C145.242 11.9167 145.632 11.999 146.074 11.999C146.412 11.999 146.724 11.9513 147.01 11.856C147.296 11.7607 147.582 11.6307 147.868 11.466L148.375 12.402C148.037 12.6187 147.656 12.8007 147.231 12.948C146.807 13.0867 146.356 13.156 145.879 13.156ZM156.282 14.976V14.157H158.843V4.615H156.282V3.796H160.013V14.976H156.282Z" fill="black"/>
</svg>
