<svg width="183" height="39" viewBox="0 0 183 39" fill="none" xmlns="http://www.w3.org/2000/svg">
<path d="M14 35.204V28.821H15.235L15.352 29.783H15.404C15.7073 29.471 16.041 29.2067 16.405 28.99C16.7777 28.7733 17.211 28.665 17.705 28.665C18.4417 28.665 18.9833 28.8903 19.33 29.341C19.6767 29.7917 19.85 30.4287 19.85 31.252V35.204H18.342V31.447C18.342 30.9357 18.251 30.5587 18.069 30.316C17.887 30.0733 17.5793 29.952 17.146 29.952C16.834 29.952 16.5567 30.0257 16.314 30.173C16.0713 30.3203 15.8027 30.5457 15.508 30.849V35.204H14Z" fill="black"/>
<path d="M24.3689 35.36C23.8056 35.36 23.2813 35.23 22.7959 34.97C22.3106 34.7013 21.9163 34.32 21.6129 33.826C21.3096 33.3233 21.1579 32.721 21.1579 32.019C21.1579 31.3083 21.3096 30.706 21.6129 30.212C21.9163 29.7093 22.3106 29.328 22.7959 29.068C23.2813 28.7993 23.8056 28.665 24.3689 28.665C24.9323 28.665 25.4566 28.7993 25.9419 29.068C26.4273 29.328 26.8216 29.7093 27.1249 30.212C27.4283 30.706 27.5799 31.3083 27.5799 32.019C27.5799 32.721 27.4283 33.3233 27.1249 33.826C26.8216 34.32 26.4273 34.7013 25.9419 34.97C25.4566 35.23 24.9323 35.36 24.3689 35.36ZM24.3689 34.138C24.7156 34.138 25.0146 34.0513 25.2659 33.878C25.5173 33.7047 25.7079 33.4577 25.8379 33.137C25.9679 32.8163 26.0329 32.4437 26.0329 32.019C26.0329 31.5943 25.9679 31.2217 25.8379 30.901C25.7079 30.5803 25.5173 30.3333 25.2659 30.16C25.0146 29.978 24.7156 29.887 24.3689 29.887C24.0223 29.887 23.7233 29.978 23.4719 30.16C23.2293 30.3333 23.0386 30.5803 22.8999 30.901C22.7699 31.2217 22.7049 31.5943 22.7049 32.019C22.7049 32.4437 22.7699 32.8163 22.8999 33.137C23.0386 33.4577 23.2293 33.7047 23.4719 33.878C23.7233 34.0513 24.0223 34.138 24.3689 34.138Z" fill="black"/>
<path d="M31.0458 35.36C30.3005 35.36 29.7588 35.1347 29.4208 34.684C29.0828 34.2333 28.9138 33.5963 28.9138 32.773V28.821H30.4088V32.578C30.4088 33.0893 30.4955 33.4663 30.6688 33.709C30.8508 33.9517 31.1628 34.073 31.6048 34.073C31.8995 34.073 32.1682 34.0037 32.4108 33.865C32.6622 33.7177 32.9265 33.4707 33.2038 33.124V28.821H34.6988V35.204H33.4768L33.3598 34.19H33.3078C33.0045 34.5367 32.6708 34.8183 32.3068 35.035C31.9428 35.2517 31.5225 35.36 31.0458 35.36Z" fill="black"/>
<path d="M36.6048 35.204V28.821H37.8398L37.9568 29.783H38.0088C38.3121 29.471 38.6458 29.2067 39.0098 28.99C39.3824 28.7733 39.8158 28.665 40.3098 28.665C41.0464 28.665 41.5881 28.8903 41.9348 29.341C42.2814 29.7917 42.4548 30.4287 42.4548 31.252V35.204H40.9468V31.447C40.9468 30.9357 40.8558 30.5587 40.6738 30.316C40.4918 30.0733 40.1841 29.952 39.7508 29.952C39.4388 29.952 39.1614 30.0257 38.9188 30.173C38.6761 30.3203 38.4074 30.5457 38.1128 30.849V35.204H36.6048Z" fill="black"/>
<path d="M53.3646 37.18V26H57.0956V26.819H54.5346V36.361H57.0956V37.18H53.3646Z" fill="black"/>
<path d="M65.7305 35.36C65.0631 35.36 64.4608 35.23 63.9235 34.97C63.3948 34.7013 62.9745 34.32 62.6625 33.826C62.3591 33.3233 62.2075 32.721 62.2075 32.019C62.2075 31.3083 62.3721 30.706 62.7015 30.212C63.0395 29.7093 63.4858 29.328 64.0405 29.068C64.5951 28.7993 65.1931 28.665 65.8345 28.665C66.3545 28.665 66.8138 28.7517 67.2125 28.925C67.6111 29.0897 67.9405 29.302 68.2005 29.562L67.4855 30.498C67.2341 30.2987 66.9785 30.147 66.7185 30.043C66.4671 29.939 66.1985 29.887 65.9125 29.887C65.4878 29.887 65.1108 29.978 64.7815 30.16C64.4608 30.3333 64.2095 30.5803 64.0275 30.901C63.8455 31.2217 63.7545 31.5943 63.7545 32.019C63.7545 32.4437 63.8411 32.8163 64.0145 33.137C64.1965 33.4577 64.4435 33.7047 64.7555 33.878C65.0761 34.0513 65.4488 34.138 65.8735 34.138C66.2375 34.138 66.5711 34.0687 66.8745 33.93C67.1778 33.7913 67.4508 33.6267 67.6935 33.436L68.3175 34.398C67.9535 34.71 67.5461 34.9483 67.0955 35.113C66.6448 35.2777 66.1898 35.36 65.7305 35.36Z" fill="black"/>
<path d="M72.9613 37.18V36.361H75.5223V26.819H72.9613V26H76.6923V37.18H72.9613Z" fill="black"/>
<path d="M92.6923 37.544V26.364H96.4233V27.183H93.8623V36.725H96.4233V37.544H92.6923Z" fill="black"/>
<path d="M104.382 38.09V29.185H105.617L105.734 29.913H105.773C106.05 29.653 106.367 29.4407 106.722 29.276C107.086 29.1113 107.45 29.029 107.814 29.029C108.377 29.029 108.85 29.1633 109.231 29.432C109.612 29.7007 109.907 30.0777 110.115 30.563C110.323 31.0483 110.427 31.6203 110.427 32.279C110.427 33.007 110.293 33.6267 110.024 34.138C109.755 34.6493 109.404 35.0437 108.971 35.321C108.546 35.5897 108.087 35.724 107.593 35.724C107.307 35.724 107.008 35.659 106.696 35.529C106.393 35.399 106.111 35.2127 105.851 34.97H105.812L105.89 36.088V38.09H104.382ZM107.281 34.489C107.584 34.489 107.857 34.4067 108.1 34.242C108.343 34.0773 108.533 33.8347 108.672 33.514C108.811 33.1847 108.88 32.7773 108.88 32.292C108.88 31.8673 108.828 31.5033 108.724 31.2C108.62 30.8967 108.46 30.667 108.243 30.511C108.035 30.3463 107.753 30.264 107.398 30.264C107.155 30.264 106.908 30.3247 106.657 30.446C106.406 30.5673 106.15 30.7623 105.89 31.031V33.904C106.124 34.112 106.367 34.2637 106.618 34.359C106.869 34.4457 107.09 34.489 107.281 34.489Z" fill="black"/>
<path d="M114.712 35.568V30.368H111.943V29.185H116.207V35.568H114.712ZM115.349 28.015C115.046 28.015 114.79 27.924 114.582 27.742C114.383 27.56 114.283 27.3173 114.283 27.014C114.283 26.7107 114.383 26.468 114.582 26.286C114.79 26.0953 115.046 26 115.349 26C115.661 26 115.917 26.0953 116.116 26.286C116.315 26.468 116.415 26.7107 116.415 27.014C116.415 27.3173 116.315 27.56 116.116 27.742C115.917 27.924 115.661 28.015 115.349 28.015Z" fill="black"/>
<path d="M119.4 31.824V30.732H125.172V31.824H119.4Z" fill="black"/>
<path d="M127.611 35.568V29.185H128.846L128.976 30.628H129.015C129.336 30.108 129.73 29.7137 130.198 29.445C130.675 29.1677 131.186 29.029 131.732 29.029C131.992 29.029 132.217 29.0507 132.408 29.094C132.599 29.1373 132.785 29.2023 132.967 29.289L132.655 30.55C132.447 30.4807 132.261 30.433 132.096 30.407C131.94 30.3723 131.741 30.355 131.498 30.355C131.065 30.355 130.64 30.4807 130.224 30.732C129.817 30.9833 129.448 31.421 129.119 32.045V35.568H127.611Z" fill="black"/>
<path d="M136.511 35.724C136.095 35.724 135.726 35.646 135.406 35.49C135.085 35.3253 134.834 35.1043 134.652 34.827C134.47 34.5497 134.379 34.2247 134.379 33.852C134.379 33.1413 134.717 32.5997 135.393 32.227C136.077 31.8457 137.208 31.5987 138.786 31.486C138.768 31.252 138.703 31.0397 138.591 30.849C138.487 30.6583 138.326 30.511 138.11 30.407C137.893 30.2943 137.611 30.238 137.265 30.238C137.022 30.238 136.784 30.2683 136.55 30.329C136.316 30.3897 136.082 30.472 135.848 30.576C135.622 30.68 135.397 30.7927 135.172 30.914L134.626 29.913C134.886 29.757 135.172 29.614 135.484 29.484C135.796 29.3453 136.125 29.237 136.472 29.159C136.818 29.0723 137.174 29.029 137.538 29.029C138.136 29.029 138.634 29.1373 139.033 29.354C139.44 29.562 139.748 29.874 139.956 30.29C140.172 30.6973 140.281 31.1957 140.281 31.785V35.568H139.059L138.942 34.775H138.903C138.565 35.035 138.188 35.2603 137.772 35.451C137.364 35.633 136.944 35.724 136.511 35.724ZM136.966 34.554C137.286 34.554 137.594 34.4847 137.889 34.346C138.192 34.1987 138.491 34.008 138.786 33.774V32.422C138.023 32.474 137.425 32.5607 136.992 32.682C136.558 32.7947 136.255 32.942 136.082 33.124C135.908 33.306 135.822 33.5097 135.822 33.735C135.822 33.9257 135.874 34.0817 135.978 34.203C136.082 34.3243 136.216 34.4153 136.381 34.476C136.554 34.528 136.749 34.554 136.966 34.554Z" fill="black"/>
<path d="M146.074 35.724C145.424 35.724 144.908 35.6113 144.527 35.386C144.145 35.152 143.872 34.8313 143.708 34.424C143.543 34.0167 143.461 33.5443 143.461 33.007V30.368H141.758V29.25L143.526 29.185L143.721 27.183H144.956V29.185H147.868V30.368H144.956V32.994C144.956 33.3407 145.003 33.631 145.099 33.865C145.194 34.0903 145.35 34.2593 145.567 34.372C145.783 34.476 146.069 34.528 146.425 34.528C146.702 34.528 146.953 34.5063 147.179 34.463C147.404 34.4197 147.621 34.359 147.829 34.281L148.115 35.36C147.829 35.4553 147.521 35.5377 147.192 35.607C146.862 35.685 146.49 35.724 146.074 35.724Z" fill="black"/>
<path d="M152.816 35.724C152.166 35.724 151.576 35.594 151.048 35.334C150.519 35.0653 150.099 34.684 149.787 34.19C149.475 33.6873 149.319 33.0807 149.319 32.37C149.319 31.6767 149.475 31.083 149.787 30.589C150.099 30.0863 150.506 29.7007 151.009 29.432C151.511 29.1633 152.049 29.029 152.621 29.029C153.253 29.029 153.786 29.159 154.22 29.419C154.662 29.679 154.995 30.0387 155.221 30.498C155.455 30.9487 155.572 31.4687 155.572 32.058C155.572 32.2053 155.563 32.3483 155.546 32.487C155.537 32.617 155.524 32.7253 155.507 32.812H150.398V31.746H154.545L154.259 32.084C154.259 31.4513 154.116 30.979 153.83 30.667C153.552 30.3463 153.162 30.186 152.66 30.186C152.304 30.186 151.984 30.2683 151.698 30.433C151.42 30.5977 151.199 30.8447 151.035 31.174C150.87 31.4947 150.788 31.8933 150.788 32.37C150.788 32.864 150.879 33.2713 151.061 33.592C151.251 33.9127 151.511 34.1553 151.841 34.32C152.179 34.4847 152.569 34.567 153.011 34.567C153.349 34.567 153.661 34.5193 153.947 34.424C154.233 34.3287 154.519 34.1987 154.805 34.034L155.312 34.97C154.974 35.1867 154.592 35.3687 154.168 35.516C153.743 35.6547 153.292 35.724 152.816 35.724Z" fill="black"/>
<path d="M163.219 37.544V36.725H165.78V27.183H163.219V26.364H166.95V37.544H163.219Z" fill="black"/>
<path d="M0.791197 10.0001V9.36309C1.7272 8.53975 2.51586 7.81609 3.1572 7.19209C3.8072 6.55942 4.3012 5.99175 4.6392 5.48909C4.9772 4.98642 5.1462 4.50542 5.1462 4.04609C5.1462 3.56942 4.99886 3.17942 4.7042 2.87609C4.40953 2.57275 3.95453 2.42109 3.3392 2.42109C2.9492 2.42109 2.5852 2.51642 2.2472 2.70709C1.91786 2.89775 1.61886 3.13609 1.3502 3.42209L0.739197 2.81109C1.11186 2.42975 1.51053 2.12642 1.9352 1.90109C2.36853 1.66709 2.87986 1.55009 3.4692 1.55009C4.02386 1.55009 4.50053 1.65409 4.8992 1.86209C5.30653 2.06142 5.61853 2.34309 5.8352 2.70709C6.06053 3.07109 6.1732 3.50009 6.1732 3.99409C6.1732 4.51409 6.01286 5.03842 5.6922 5.56709C5.37153 6.09575 4.92086 6.65475 4.3402 7.24409C3.7682 7.82475 3.1052 8.46175 2.3512 9.15509C2.6112 9.12909 2.8712 9.11175 3.1312 9.10309C3.3912 9.08575 3.64686 9.07709 3.8982 9.07709H6.6282V10.0001H0.791197Z" fill="black"/>
<path d="M11.1211 10.0001V4.28009C11.1298 4.05475 11.1385 3.81209 11.1471 3.55209C11.1645 3.28342 11.1775 3.03642 11.1861 2.81109H11.1211C10.9911 3.01042 10.8525 3.21409 10.7051 3.42209C10.5578 3.62142 10.4148 3.82075 10.2761 4.02009L8.02712 6.85409H13.4221V7.71209H6.84412V6.99709L10.9911 1.70609H12.1351V10.0001H11.1211Z" fill="black"/>
<path d="M16.732 4.42309C16.446 4.42309 16.1774 4.35809 15.926 4.22809C15.6834 4.08942 15.484 3.89442 15.328 3.64309C15.1807 3.39175 15.107 3.10142 15.107 2.77209C15.107 2.43409 15.1807 2.13942 15.328 1.88809C15.484 1.63675 15.6834 1.44175 15.926 1.30309C16.1774 1.16442 16.446 1.09509 16.732 1.09509C17.0267 1.09509 17.2954 1.16442 17.538 1.30309C17.7894 1.44175 17.9887 1.63675 18.136 1.88809C18.292 2.13942 18.37 2.43409 18.37 2.77209C18.37 3.10142 18.292 3.39175 18.136 3.64309C17.9887 3.89442 17.7894 4.08942 17.538 4.22809C17.2954 4.35809 17.0267 4.42309 16.732 4.42309ZM16.732 3.82509C17.0267 3.82509 17.265 3.72542 17.447 3.52609C17.629 3.32675 17.72 3.07542 17.72 2.77209C17.72 2.45142 17.629 2.19142 17.447 1.99209C17.265 1.79275 17.0267 1.69309 16.732 1.69309C16.446 1.69309 16.212 1.79275 16.03 1.99209C15.848 2.19142 15.757 2.45142 15.757 2.77209C15.757 3.07542 15.848 3.32675 16.03 3.52609C16.212 3.72542 16.446 3.82509 16.732 3.82509Z" fill="black"/>
<path d="M29.7219 10.1561C29.1066 10.1561 28.5779 9.98709 28.1359 9.64909C27.6939 9.30242 27.3516 8.80842 27.1089 8.16709C26.8662 7.52575 26.7449 6.74575 26.7449 5.82709C26.7449 4.43175 27.0092 3.37009 27.5379 2.64209C28.0752 1.91409 28.8032 1.55009 29.7219 1.55009C30.6492 1.55009 31.3772 1.91409 31.9059 2.64209C32.4346 3.37009 32.6989 4.43175 32.6989 5.82709C32.6989 6.74575 32.5776 7.52575 32.3349 8.16709C32.1009 8.80842 31.7586 9.30242 31.3079 9.64909C30.8659 9.98709 30.3372 10.1561 29.7219 10.1561ZM29.7219 9.29809C30.1119 9.29809 30.4542 9.17675 30.7489 8.93409C31.0436 8.68275 31.2732 8.30142 31.4379 7.79009C31.6112 7.27009 31.6979 6.61575 31.6979 5.82709C31.6979 5.02975 31.6112 4.37975 31.4379 3.87709C31.2732 3.37442 31.0436 3.00609 30.7489 2.77209C30.4542 2.52942 30.1119 2.40809 29.7219 2.40809C29.3406 2.40809 28.9982 2.52942 28.6949 2.77209C28.4002 3.00609 28.1662 3.37442 27.9929 3.87709C27.8282 4.37975 27.7459 5.02975 27.7459 5.82709C27.7459 6.61575 27.8282 7.27009 27.9929 7.79009C28.1662 8.30142 28.4002 8.68275 28.6949 8.93409C28.9982 9.17675 29.3406 9.29809 29.7219 9.29809ZM29.7219 6.60709C29.5052 6.60709 29.3146 6.52909 29.1499 6.37309C28.9939 6.21709 28.9159 6.00475 28.9159 5.73609C28.9159 5.46742 28.9939 5.25942 29.1499 5.11209C29.3146 4.95609 29.5052 4.87809 29.7219 4.87809C29.9472 4.87809 30.1379 4.95609 30.2939 5.11209C30.4499 5.25942 30.5279 5.46742 30.5279 5.73609C30.5279 6.00475 30.4499 6.21709 30.2939 6.37309C30.1379 6.52909 29.9472 6.60709 29.7219 6.60709Z" fill="black"/>
<path d="M36.4898 10.1561C36.0391 10.1561 35.6188 10.0738 35.2288 9.90909C34.8475 9.74442 34.5138 9.49742 34.2278 9.16809C33.9418 8.83009 33.7165 8.41409 33.5518 7.92009C33.3958 7.41742 33.3178 6.83242 33.3178 6.16509C33.3178 5.33309 33.4131 4.62675 33.6038 4.04609C33.7945 3.45675 34.0501 2.98009 34.3708 2.61609C34.7001 2.25209 35.0728 1.98342 35.4888 1.81009C35.9048 1.63675 36.3381 1.55009 36.7888 1.55009C37.2915 1.55009 37.7335 1.63675 38.1148 1.81009C38.4961 1.97475 38.8255 2.18275 39.1028 2.43409L38.5048 3.09709C38.2968 2.89775 38.0455 2.74175 37.7508 2.62909C37.4648 2.50775 37.1658 2.44709 36.8538 2.44709C36.4031 2.44709 35.9871 2.56409 35.6058 2.79809C35.2245 3.03209 34.9125 3.42209 34.6698 3.96809C34.4358 4.50542 34.3188 5.23775 34.3188 6.16509C34.3188 6.84975 34.4011 7.42609 34.5658 7.89409C34.7391 8.36209 34.9861 8.71742 35.3068 8.96009C35.6361 9.19409 36.0305 9.31109 36.4898 9.31109C36.8191 9.31109 37.1138 9.23742 37.3738 9.09009C37.6425 8.93409 37.8548 8.72175 38.0108 8.45309C38.1668 8.17575 38.2448 7.85509 38.2448 7.49109C38.2448 6.91909 38.0931 6.48575 37.7898 6.19109C37.4865 5.88775 37.0488 5.73609 36.4768 5.73609C36.1475 5.73609 35.7921 5.82709 35.4108 6.00909C35.0295 6.18242 34.6611 6.48142 34.3058 6.90609L34.2668 6.06109C34.6135 5.71442 34.9905 5.44142 35.3978 5.24209C35.8138 5.03409 36.2385 4.93009 36.6718 4.93009C37.1831 4.93009 37.6338 5.02542 38.0238 5.21609C38.4138 5.40675 38.7171 5.69275 38.9338 6.07409C39.1505 6.45542 39.2588 6.92775 39.2588 7.49109C39.2588 8.01975 39.1288 8.48342 38.8688 8.88209C38.6175 9.28075 38.2795 9.59275 37.8548 9.81809C37.4388 10.0434 36.9838 10.1561 36.4898 10.1561Z" fill="black"/>
<path d="M41.9967 5.45009L41.6327 4.82609C42.0661 4.57475 42.3997 4.26275 42.6337 3.89009C42.8764 3.50875 42.9977 3.07109 42.9977 2.57709L42.7377 1.56309L43.4527 2.43409C43.3401 2.55542 43.2144 2.65509 43.0757 2.73309C42.9371 2.81109 42.7941 2.85009 42.6467 2.85009C42.3781 2.85009 42.1571 2.76342 41.9837 2.59009C41.8104 2.41675 41.7237 2.19575 41.7237 1.92709C41.7237 1.62375 41.8147 1.38109 41.9967 1.19909C42.1787 1.00842 42.4084 0.913086 42.6857 0.913086C43.0237 0.913086 43.3011 1.05175 43.5177 1.32909C43.7431 1.60642 43.8557 1.99209 43.8557 2.48609C43.8557 3.13609 43.6911 3.72109 43.3617 4.24109C43.0324 4.75242 42.5774 5.15542 41.9967 5.45009Z" fill="black"/>
<path d="M52.7506 10.0001V9.36309C53.6866 8.53975 54.4752 7.81609 55.1166 7.19209C55.7666 6.55942 56.2606 5.99175 56.5986 5.48909C56.9366 4.98642 57.1056 4.50542 57.1056 4.04609C57.1056 3.56942 56.9582 3.17942 56.6636 2.87609C56.3689 2.57275 55.9139 2.42109 55.2986 2.42109C54.9086 2.42109 54.5446 2.51642 54.2066 2.70709C53.8772 2.89775 53.5782 3.13609 53.3096 3.42209L52.6986 2.81109C53.0712 2.42975 53.4699 2.12642 53.8946 1.90109C54.3279 1.66709 54.8392 1.55009 55.4286 1.55009C55.9832 1.55009 56.4599 1.65409 56.8586 1.86209C57.2659 2.06142 57.5779 2.34309 57.7946 2.70709C58.0199 3.07109 58.1326 3.50009 58.1326 3.99409C58.1326 4.51409 57.9722 5.03842 57.6516 5.56709C57.3309 6.09575 56.8802 6.65475 56.2996 7.24409C55.7276 7.82475 55.0646 8.46175 54.3106 9.15509C54.5706 9.12909 54.8306 9.11175 55.0906 9.10309C55.3506 9.08575 55.6062 9.07709 55.8576 9.07709H58.5876V10.0001H52.7506Z" fill="black"/>
<path d="M62.0145 10.1561C61.5205 10.1561 61.0872 10.1041 60.7145 10.0001C60.3418 9.88742 60.0168 9.74442 59.7395 9.57109C59.4708 9.39775 59.2325 9.21575 59.0245 9.02509L59.5575 8.32309C59.7395 8.48775 59.9388 8.64375 60.1555 8.79109C60.3808 8.92975 60.6365 9.04675 60.9225 9.14209C61.2085 9.22875 61.5335 9.27209 61.8975 9.27209C62.2875 9.27209 62.6428 9.19409 62.9635 9.03809C63.2842 8.88209 63.5355 8.66542 63.7175 8.38809C63.9082 8.10209 64.0035 7.76409 64.0035 7.37409C64.0035 6.80209 63.8172 6.35575 63.4445 6.03509C63.0718 5.71442 62.5778 5.55409 61.9625 5.55409C61.6158 5.55409 61.3212 5.59742 61.0785 5.68409C60.8358 5.77075 60.5672 5.89642 60.2725 6.06109L59.7005 5.69709L59.9735 1.70609H64.6665V2.62909H60.9225L60.7015 5.08609C60.9355 4.98209 61.1695 4.89975 61.4035 4.83909C61.6462 4.77842 61.9235 4.74809 62.2355 4.74809C62.7642 4.74809 63.2452 4.83909 63.6785 5.02109C64.1118 5.20309 64.4542 5.48909 64.7055 5.87909C64.9568 6.26042 65.0825 6.75009 65.0825 7.34809C65.0825 7.94609 64.9352 8.45742 64.6405 8.88209C64.3545 9.29809 63.9775 9.61442 63.5095 9.83109C63.0415 10.0478 62.5432 10.1561 62.0145 10.1561Z" fill="black"/>
<path d="M66.4814 5.45009L66.1174 4.82609C66.5507 4.57475 66.8844 4.26275 67.1184 3.89009C67.3611 3.50875 67.4824 3.07109 67.4824 2.57709L67.2224 1.56309L67.9374 2.43409C67.8247 2.55542 67.6991 2.65509 67.5604 2.73309C67.4217 2.81109 67.2787 2.85009 67.1314 2.85009C66.8627 2.85009 66.6417 2.76342 66.4684 2.59009C66.2951 2.41675 66.2084 2.19575 66.2084 1.92709C66.2084 1.62375 66.2994 1.38109 66.4814 1.19909C66.6634 1.00842 66.8931 0.913086 67.1704 0.913086C67.5084 0.913086 67.7857 1.05175 68.0024 1.32909C68.2277 1.60642 68.3404 1.99209 68.3404 2.48609C68.3404 3.13609 68.1757 3.72109 67.8464 4.24109C67.5171 4.75242 67.0621 5.15542 66.4814 5.45009ZM69.4714 5.45009L69.1074 4.82609C69.5407 4.57475 69.8744 4.26275 70.1084 3.89009C70.3511 3.50875 70.4724 3.07109 70.4724 2.57709L70.2124 1.56309L70.9274 2.43409C70.8147 2.55542 70.6891 2.65509 70.5504 2.73309C70.4117 2.81109 70.2687 2.85009 70.1214 2.85009C69.8527 2.85009 69.6317 2.76342 69.4584 2.59009C69.2851 2.41675 69.1984 2.19575 69.1984 1.92709C69.1984 1.62375 69.2894 1.38109 69.4714 1.19909C69.6534 1.00842 69.8831 0.913086 70.1604 0.913086C70.4984 0.913086 70.7757 1.05175 70.9924 1.32909C71.2177 1.60642 71.3304 1.99209 71.3304 2.48609C71.3304 3.13609 71.1657 3.72109 70.8364 4.24109C70.5071 4.75242 70.0521 5.15542 69.4714 5.45009Z" fill="black"/>
<path d="M78.8473 10.0001V1.47209H80.0433L82.7733 6.82809L83.5923 8.59609H83.6183C83.6009 8.17142 83.5706 7.72942 83.5273 7.27009C83.4926 6.80209 83.4753 6.34275 83.4753 5.89209V1.47209H84.5153V10.0001H83.3193L80.5893 4.64409L79.7703 2.87609H79.7443C79.7616 3.30942 79.7876 3.75142 79.8223 4.20209C79.8656 4.65275 79.8873 5.09909 79.8873 5.54109V10.0001H78.8473Z" fill="black"/>
<path d="M87.1362 12.7691L86.8372 12.0931C87.3918 11.8504 87.8035 11.5428 88.0722 11.1701C88.3408 10.8061 88.4752 10.3554 88.4752 9.81809L88.2282 8.62209L88.9562 9.64909C88.8522 9.77042 88.7352 9.85275 88.6052 9.89609C88.4838 9.93075 88.3582 9.94809 88.2282 9.94809C88.0462 9.94809 87.8772 9.91342 87.7212 9.84409C87.5652 9.76609 87.4395 9.65775 87.3442 9.51909C87.2575 9.37175 87.2142 9.18975 87.2142 8.97309C87.2142 8.65242 87.3182 8.40975 87.5262 8.24509C87.7342 8.07175 87.9768 7.98509 88.2542 7.98509C88.6355 7.98509 88.9258 8.13675 89.1252 8.44009C89.3245 8.73475 89.4242 9.13775 89.4242 9.64909C89.4242 10.4118 89.2205 11.0531 88.8132 11.5731C88.4058 12.1018 87.8468 12.5004 87.1362 12.7691Z" fill="black"/>
<path d="M100.204 10.0001C100.239 9.21142 100.312 8.49209 100.425 7.84209C100.538 7.19209 100.702 6.58109 100.919 6.00909C101.136 5.42842 101.413 4.86509 101.751 4.31909C102.089 3.77309 102.492 3.20975 102.96 2.62909H98.176V1.70609H104.182V2.36909C103.627 2.99309 103.172 3.59109 102.817 4.16309C102.462 4.73509 102.18 5.31575 101.972 5.90509C101.764 6.49442 101.608 7.12275 101.504 7.79009C101.409 8.44875 101.348 9.18542 101.322 10.0001H100.204Z" fill="black"/>
<path d="M107.934 10.1561C107.483 10.1561 107.063 10.0738 106.673 9.90909C106.292 9.74442 105.958 9.49742 105.672 9.16809C105.386 8.83009 105.161 8.41409 104.996 7.92009C104.84 7.41742 104.762 6.83242 104.762 6.16509C104.762 5.33309 104.857 4.62675 105.048 4.04609C105.239 3.45675 105.494 2.98009 105.815 2.61609C106.144 2.25209 106.517 1.98342 106.933 1.81009C107.349 1.63675 107.782 1.55009 108.233 1.55009C108.736 1.55009 109.178 1.63675 109.559 1.81009C109.94 1.97475 110.27 2.18275 110.547 2.43409L109.949 3.09709C109.741 2.89775 109.49 2.74175 109.195 2.62909C108.909 2.50775 108.61 2.44709 108.298 2.44709C107.847 2.44709 107.431 2.56409 107.05 2.79809C106.669 3.03209 106.357 3.42209 106.114 3.96809C105.88 4.50542 105.763 5.23775 105.763 6.16509C105.763 6.84975 105.845 7.42609 106.01 7.89409C106.183 8.36209 106.43 8.71742 106.751 8.96009C107.08 9.19409 107.475 9.31109 107.934 9.31109C108.263 9.31109 108.558 9.23742 108.818 9.09009C109.087 8.93409 109.299 8.72175 109.455 8.45309C109.611 8.17575 109.689 7.85509 109.689 7.49109C109.689 6.91909 109.537 6.48575 109.234 6.19109C108.931 5.88775 108.493 5.73609 107.921 5.73609C107.592 5.73609 107.236 5.82709 106.855 6.00909C106.474 6.18242 106.105 6.48142 105.75 6.90609L105.711 6.06109C106.058 5.71442 106.435 5.44142 106.842 5.24209C107.258 5.03409 107.683 4.93009 108.116 4.93009C108.627 4.93009 109.078 5.02542 109.468 5.21609C109.858 5.40675 110.161 5.69275 110.378 6.07409C110.595 6.45542 110.703 6.92775 110.703 7.49109C110.703 8.01975 110.573 8.48342 110.313 8.88209C110.062 9.28075 109.724 9.59275 109.299 9.81809C108.883 10.0434 108.428 10.1561 107.934 10.1561Z" fill="black"/>
<path d="M114.156 4.42309C113.87 4.42309 113.601 4.35809 113.35 4.22809C113.107 4.08942 112.908 3.89442 112.752 3.64309C112.605 3.39175 112.531 3.10142 112.531 2.77209C112.531 2.43409 112.605 2.13942 112.752 1.88809C112.908 1.63675 113.107 1.44175 113.35 1.30309C113.601 1.16442 113.87 1.09509 114.156 1.09509C114.451 1.09509 114.719 1.16442 114.962 1.30309C115.213 1.44175 115.413 1.63675 115.56 1.88809C115.716 2.13942 115.794 2.43409 115.794 2.77209C115.794 3.10142 115.716 3.39175 115.56 3.64309C115.413 3.89442 115.213 4.08942 114.962 4.22809C114.719 4.35809 114.451 4.42309 114.156 4.42309ZM114.156 3.82509C114.451 3.82509 114.689 3.72542 114.871 3.52609C115.053 3.32675 115.144 3.07542 115.144 2.77209C115.144 2.45142 115.053 2.19142 114.871 1.99209C114.689 1.79275 114.451 1.69309 114.156 1.69309C113.87 1.69309 113.636 1.79275 113.454 1.99209C113.272 2.19142 113.181 2.45142 113.181 2.77209C113.181 3.07542 113.272 3.32675 113.454 3.52609C113.636 3.72542 113.87 3.82509 114.156 3.82509Z" fill="black"/>
<path d="M124.195 10.0001V9.36309C125.131 8.53975 125.919 7.81609 126.561 7.19209C127.211 6.55942 127.705 5.99175 128.043 5.48909C128.381 4.98642 128.55 4.50542 128.55 4.04609C128.55 3.56942 128.402 3.17942 128.108 2.87609C127.813 2.57275 127.358 2.42109 126.743 2.42109C126.353 2.42109 125.989 2.51642 125.651 2.70709C125.321 2.89775 125.022 3.13609 124.754 3.42209L124.143 2.81109C124.515 2.42975 124.914 2.12642 125.339 1.90109C125.772 1.66709 126.283 1.55009 126.873 1.55009C127.427 1.55009 127.904 1.65409 128.303 1.86209C128.71 2.06142 129.022 2.34309 129.239 2.70709C129.464 3.07109 129.577 3.50009 129.577 3.99409C129.577 4.51409 129.416 5.03842 129.096 5.56709C128.775 6.09575 128.324 6.65475 127.744 7.24409C127.172 7.82475 126.509 8.46175 125.755 9.15509C126.015 9.12909 126.275 9.11175 126.535 9.10309C126.795 9.08575 127.05 9.07709 127.302 9.07709H130.032V10.0001H124.195Z" fill="black"/>
<path d="M134.525 10.0001V4.28009C134.533 4.05475 134.542 3.81209 134.551 3.55209C134.568 3.28342 134.581 3.03642 134.59 2.81109H134.525C134.395 3.01042 134.256 3.21409 134.109 3.42209C133.961 3.62142 133.818 3.82075 133.68 4.02009L131.431 6.85409H136.826V7.71209H130.248V6.99709L134.395 1.70609H135.539V10.0001H134.525Z" fill="black"/>
<path d="M139.421 5.45009L139.057 4.82609C139.49 4.57475 139.824 4.26275 140.058 3.89009C140.3 3.50875 140.422 3.07109 140.422 2.57709L140.162 1.56309L140.877 2.43409C140.764 2.55542 140.638 2.65509 140.5 2.73309C140.361 2.81109 140.218 2.85009 140.071 2.85009C139.802 2.85009 139.581 2.76342 139.408 2.59009C139.234 2.41675 139.148 2.19575 139.148 1.92709C139.148 1.62375 139.239 1.38109 139.421 1.19909C139.603 1.00842 139.832 0.913086 140.11 0.913086C140.448 0.913086 140.725 1.05175 140.942 1.32909C141.167 1.60642 141.28 1.99209 141.28 2.48609C141.28 3.13609 141.115 3.72109 140.786 4.24109C140.456 4.75242 140.001 5.15542 139.421 5.45009Z" fill="black"/>
<path d="M150.174 10.0001V9.36309C151.11 8.53975 151.899 7.81609 152.54 7.19209C153.19 6.55942 153.684 5.99175 154.022 5.48909C154.36 4.98642 154.529 4.50542 154.529 4.04609C154.529 3.56942 154.382 3.17942 154.087 2.87609C153.793 2.57275 153.338 2.42109 152.722 2.42109C152.332 2.42109 151.968 2.51642 151.63 2.70709C151.301 2.89775 151.002 3.13609 150.733 3.42209L150.122 2.81109C150.495 2.42975 150.894 2.12642 151.318 1.90109C151.752 1.66709 152.263 1.55009 152.852 1.55009C153.407 1.55009 153.884 1.65409 154.282 1.86209C154.69 2.06142 155.002 2.34309 155.218 2.70709C155.444 3.07109 155.556 3.50009 155.556 3.99409C155.556 4.51409 155.396 5.03842 155.075 5.56709C154.755 6.09575 154.304 6.65475 153.723 7.24409C153.151 7.82475 152.488 8.46175 151.734 9.15509C151.994 9.12909 152.254 9.11175 152.514 9.10309C152.774 9.08575 153.03 9.07709 153.281 9.07709H156.011V10.0001H150.174Z" fill="black"/>
<path d="M159.893 10.1561C159.443 10.1561 159.022 10.0738 158.632 9.90909C158.251 9.74442 157.917 9.49742 157.631 9.16809C157.345 8.83009 157.12 8.41409 156.955 7.92009C156.799 7.41742 156.721 6.83242 156.721 6.16509C156.721 5.33309 156.817 4.62675 157.007 4.04609C157.198 3.45675 157.454 2.98009 157.774 2.61609C158.104 2.25209 158.476 1.98342 158.892 1.81009C159.308 1.63675 159.742 1.55009 160.192 1.55009C160.695 1.55009 161.137 1.63675 161.518 1.81009C161.9 1.97475 162.229 2.18275 162.506 2.43409L161.908 3.09709C161.7 2.89775 161.449 2.74175 161.154 2.62909C160.868 2.50775 160.569 2.44709 160.257 2.44709C159.807 2.44709 159.391 2.56409 159.009 2.79809C158.628 3.03209 158.316 3.42209 158.073 3.96809C157.839 4.50542 157.722 5.23775 157.722 6.16509C157.722 6.84975 157.805 7.42609 157.969 7.89409C158.143 8.36209 158.39 8.71742 158.71 8.96009C159.04 9.19409 159.434 9.31109 159.893 9.31109C160.223 9.31109 160.517 9.23742 160.777 9.09009C161.046 8.93409 161.258 8.72175 161.414 8.45309C161.57 8.17575 161.648 7.85509 161.648 7.49109C161.648 6.91909 161.497 6.48575 161.193 6.19109C160.89 5.88775 160.452 5.73609 159.88 5.73609C159.551 5.73609 159.196 5.82709 158.814 6.00909C158.433 6.18242 158.065 6.48142 157.709 6.90609L157.67 6.06109C158.017 5.71442 158.394 5.44142 158.801 5.24209C159.217 5.03409 159.642 4.93009 160.075 4.93009C160.587 4.93009 161.037 5.02542 161.427 5.21609C161.817 5.40675 162.121 5.69275 162.337 6.07409C162.554 6.45542 162.662 6.92775 162.662 7.49109C162.662 8.01975 162.532 8.48342 162.272 8.88209C162.021 9.28075 161.683 9.59275 161.258 9.81809C160.842 10.0434 160.387 10.1561 159.893 10.1561Z" fill="black"/>
<path d="M165.4 5.45009L165.036 4.82609C165.47 4.57475 165.803 4.26275 166.037 3.89009C166.28 3.50875 166.401 3.07109 166.401 2.57709L166.141 1.56309L166.856 2.43409C166.744 2.55542 166.618 2.65509 166.479 2.73309C166.341 2.81109 166.198 2.85009 166.05 2.85009C165.782 2.85009 165.561 2.76342 165.387 2.59009C165.214 2.41675 165.127 2.19575 165.127 1.92709C165.127 1.62375 165.218 1.38109 165.4 1.19909C165.582 1.00842 165.812 0.913086 166.089 0.913086C166.427 0.913086 166.705 1.05175 166.921 1.32909C167.147 1.60642 167.259 1.99209 167.259 2.48609C167.259 3.13609 167.095 3.72109 166.765 4.24109C166.436 4.75242 165.981 5.15542 165.4 5.45009Z" fill="black"/>
<path d="M176.635 10.0001L175.335 1.45909H176.557L177.181 6.81509C177.207 7.04909 177.229 7.26575 177.246 7.46509C177.272 7.65575 177.294 7.85509 177.311 8.06309C177.328 8.26242 177.341 8.50509 177.35 8.79109H177.389C177.441 8.50509 177.489 8.26242 177.532 8.06309C177.575 7.85509 177.619 7.65575 177.662 7.46509C177.705 7.27442 177.753 7.06209 177.805 6.82809L178.637 3.65609H179.677L180.483 6.82809C180.544 7.06209 180.596 7.27442 180.639 7.46509C180.682 7.65575 180.721 7.85509 180.756 8.06309C180.799 8.26242 180.847 8.50509 180.899 8.79109H180.951C180.968 8.50509 180.981 8.26242 180.99 8.06309C181.007 7.85509 181.025 7.65575 181.042 7.46509C181.059 7.27442 181.081 7.06209 181.107 6.82809L181.705 1.45909H182.875L181.627 10.0001H180.275L179.443 6.56809C179.382 6.30809 179.326 6.05242 179.274 5.80109C179.222 5.54975 179.174 5.29409 179.131 5.03409H179.092C179.049 5.29409 179.005 5.54975 178.962 5.80109C178.919 6.05242 178.862 6.30809 178.793 6.56809L177.961 10.0001H176.635Z" fill="black"/>
</svg>
