<svg width="46" height="50" viewBox="0 0 46 50" fill="none" xmlns="http://www.w3.org/2000/svg">
<path d="M21.6147 8.25861V-7.62939e-06H22.9639L25.3721 4.90473L26.1412 6.64471H26.179C26.1538 6.22442 26.116 5.77892 26.0656 5.3082C26.0235 4.83748 26.0025 4.37937 26.0025 3.93387V-7.62939e-06H27.213V8.25861H25.8638L23.4556 3.35387L22.6865 1.61389H22.6486C22.6739 2.04258 22.7075 2.48808 22.7495 2.9504C22.8 3.40431 22.8252 3.85401 22.8252 4.29951V8.25861H21.6147Z" fill="black"/>
<path d="M23.7402 49.838C23.1518 49.838 22.597 49.733 22.0758 49.5228C21.5631 49.3043 21.1092 49.0017 20.7141 48.615L21.4454 47.7576C21.7648 48.0518 22.1263 48.2914 22.5297 48.4763C22.9332 48.6528 23.3619 48.7411 23.8158 48.7411C24.337 48.7411 24.7404 48.6318 25.0262 48.4133C25.312 48.1947 25.4549 47.9173 25.4549 47.5811C25.4549 47.3121 25.3919 47.0978 25.2658 46.9381C25.1481 46.7783 24.98 46.6439 24.7615 46.5346C24.5429 46.4253 24.2949 46.316 24.0176 46.2068L22.8576 45.6898C22.5802 45.5805 22.3028 45.4376 22.0254 45.2611C21.7564 45.0762 21.5337 44.845 21.3571 44.5676C21.1806 44.2819 21.0924 43.9372 21.0924 43.5337C21.0924 43.1051 21.21 42.7226 21.4454 42.3864C21.6808 42.0417 22.0086 41.7727 22.4289 41.5794C22.8492 41.3777 23.3325 41.2768 23.8789 41.2768C24.3916 41.2768 24.8707 41.3693 25.3162 41.5542C25.7617 41.7391 26.1442 41.9913 26.4636 42.3107L25.808 43.1177C25.539 42.8823 25.2448 42.7016 24.9254 42.5755C24.606 42.441 24.2361 42.3738 23.8158 42.3738C23.3787 42.3738 23.0257 42.4704 22.7567 42.6638C22.4961 42.8571 22.3658 43.1219 22.3658 43.4581C22.3658 43.6935 22.4331 43.891 22.5676 44.0507C22.7105 44.202 22.8912 44.3281 23.1097 44.429C23.3283 44.5298 23.5594 44.6307 23.8032 44.7316L24.9254 45.2233C25.27 45.3578 25.5768 45.5217 25.8458 45.715C26.1232 45.9 26.3417 46.1311 26.5014 46.4085C26.6612 46.6859 26.741 47.0263 26.741 47.4298C26.741 47.8669 26.6191 48.2704 26.3754 48.6402C26.14 49.0017 25.7996 49.2917 25.3541 49.5102C24.9086 49.7288 24.3706 49.838 23.7402 49.838Z" fill="black"/>
<path d="M39.9871 28.9727V20.7141H45.1818V21.7732H41.2479V24.131H44.5766V25.1901H41.2479V27.9136H45.3079V28.9727H39.9871Z" fill="black"/>
<path d="M1.21042 28.9853L0 20.7141H1.37433L1.87868 25.7071C1.9123 26.0517 1.93752 26.3627 1.95433 26.6401C1.97955 26.9175 2.00056 27.2537 2.01737 27.6488H2.0552C2.12244 27.2537 2.18549 26.9175 2.24433 26.6401C2.31157 26.3627 2.38302 26.0517 2.45867 25.7071L3.20258 22.8323H4.2617L4.96778 25.7071C5.05183 26.0433 5.12328 26.3543 5.18212 26.6401C5.24096 26.9175 5.304 27.2537 5.37125 27.6488H5.42168C5.4385 27.2537 5.45531 26.9175 5.47212 26.6401C5.48893 26.3543 5.51415 26.0433 5.54777 25.7071L6.0395 20.7141H7.3508L6.19081 28.9853H4.703L3.9717 25.8584C3.91286 25.6062 3.85822 25.354 3.80779 25.1018C3.76576 24.8497 3.72793 24.5975 3.69431 24.3453H3.65649C3.62286 24.5975 3.58504 24.8497 3.54301 25.1018C3.50098 25.354 3.44634 25.6062 3.3791 25.8584L2.66041 28.9853H1.21042Z" fill="black"/>
<line x1="23.4741" y1="12.6085" x2="23.474" y2="37.8257" stroke="black" stroke-width="0.548199"/>
<line x1="36.0245" y1="25.4912" x2="10.8074" y2="25.4912" stroke="black" stroke-width="0.548199"/>
<circle cx="23.416" cy="25.2171" r="10.6899" stroke="black" stroke-width="0.548199"/>
</svg>
