<svg width="183" height="13" viewBox="0 0 183 13" fill="none" xmlns="http://www.w3.org/2000/svg">
<path d="M0.791136 10V9.363C1.72714 8.53966 2.5158 7.816 3.15714 7.192C3.80714 6.55933 4.30114 5.99166 4.63914 5.489C4.97714 4.98633 5.14614 4.50533 5.14614 4.04599C5.14614 3.56933 4.9988 3.17933 4.70414 2.87599C4.40947 2.57266 3.95447 2.421 3.33914 2.421C2.94914 2.421 2.58514 2.51633 2.24714 2.70699C1.9178 2.89766 1.6188 3.13599 1.35014 3.42199L0.739136 2.81099C1.1118 2.42966 1.51047 2.12633 1.93514 1.90099C2.36847 1.66699 2.8798 1.54999 3.46914 1.54999C4.0238 1.54999 4.50047 1.65399 4.89914 1.86199C5.30647 2.06133 5.61847 2.34299 5.83514 2.70699C6.06047 3.07099 6.17314 3.49999 6.17314 3.994C6.17314 4.514 6.0128 5.03833 5.69214 5.56699C5.37147 6.09566 4.9208 6.65466 4.34014 7.24399C3.76814 7.82466 3.10514 8.46166 2.35114 9.15499C2.61114 9.12899 2.87114 9.11166 3.13114 9.10299C3.39114 9.08566 3.6468 9.07699 3.89814 9.07699H6.62814V10H0.791136Z" fill="black"/>
<path d="M11.1211 10V4.27999C11.1297 4.05466 11.1384 3.81199 11.1471 3.55199C11.1644 3.28333 11.1774 3.03633 11.1861 2.81099H11.1211C10.9911 3.01033 10.8524 3.21399 10.7051 3.42199C10.5577 3.62133 10.4147 3.82066 10.2761 4.02L8.02706 6.854H13.4221V7.712H6.84406V6.99699L10.9911 1.706H12.1351V10H11.1211Z" fill="black"/>
<path d="M16.732 4.423C16.446 4.423 16.1773 4.358 15.926 4.22799C15.6833 4.08933 15.484 3.89433 15.328 3.64299C15.1806 3.39166 15.107 3.10133 15.107 2.77199C15.107 2.43399 15.1806 2.13933 15.328 1.888C15.484 1.63666 15.6833 1.44166 15.926 1.30299C16.1773 1.16433 16.446 1.09499 16.732 1.09499C17.0266 1.09499 17.2953 1.16433 17.538 1.30299C17.7893 1.44166 17.9886 1.63666 18.136 1.888C18.292 2.13933 18.37 2.43399 18.37 2.77199C18.37 3.10133 18.292 3.39166 18.136 3.64299C17.9886 3.89433 17.7893 4.08933 17.538 4.22799C17.2953 4.358 17.0266 4.423 16.732 4.423ZM16.732 3.825C17.0266 3.825 17.265 3.72533 17.447 3.52599C17.629 3.32666 17.72 3.07533 17.72 2.77199C17.72 2.45133 17.629 2.19133 17.447 1.99199C17.265 1.79266 17.0266 1.69299 16.732 1.69299C16.446 1.69299 16.212 1.79266 16.03 1.99199C15.848 2.19133 15.757 2.45133 15.757 2.77199C15.757 3.07533 15.848 3.32666 16.03 3.52599C16.212 3.72533 16.446 3.825 16.732 3.825Z" fill="black"/>
<path d="M29.7218 10.156C29.1065 10.156 28.5778 9.987 28.1358 9.649C27.6938 9.30233 27.3515 8.80833 27.1088 8.167C26.8662 7.52566 26.7448 6.74566 26.7448 5.82699C26.7448 4.43166 27.0092 3.36999 27.5378 2.64199C28.0752 1.91399 28.8032 1.54999 29.7218 1.54999C30.6492 1.54999 31.3772 1.91399 31.9058 2.64199C32.4345 3.36999 32.6988 4.43166 32.6988 5.82699C32.6988 6.74566 32.5775 7.52566 32.3348 8.167C32.1008 8.80833 31.7585 9.30233 31.3078 9.649C30.8658 9.987 30.3372 10.156 29.7218 10.156ZM29.7218 9.298C30.1118 9.298 30.4542 9.17666 30.7488 8.934C31.0435 8.68266 31.2732 8.30133 31.4378 7.79C31.6112 7.27 31.6978 6.61566 31.6978 5.82699C31.6978 5.02966 31.6112 4.37966 31.4378 3.877C31.2732 3.37433 31.0435 3.00599 30.7488 2.77199C30.4542 2.52933 30.1118 2.40799 29.7218 2.40799C29.3405 2.40799 28.9982 2.52933 28.6948 2.77199C28.4002 3.00599 28.1662 3.37433 27.9928 3.877C27.8282 4.37966 27.7458 5.02966 27.7458 5.82699C27.7458 6.61566 27.8282 7.27 27.9928 7.79C28.1662 8.30133 28.4002 8.68266 28.6948 8.934C28.9982 9.17666 29.3405 9.298 29.7218 9.298ZM29.7218 6.607C29.5052 6.607 29.3145 6.529 29.1498 6.373C28.9938 6.217 28.9158 6.00466 28.9158 5.736C28.9158 5.46733 28.9938 5.25933 29.1498 5.11199C29.3145 4.95599 29.5052 4.878 29.7218 4.878C29.9472 4.878 30.1378 4.95599 30.2938 5.11199C30.4498 5.25933 30.5278 5.46733 30.5278 5.736C30.5278 6.00466 30.4498 6.217 30.2938 6.373C30.1378 6.529 29.9472 6.607 29.7218 6.607Z" fill="black"/>
<path d="M36.4897 10.156C36.0391 10.156 35.6187 10.0737 35.2287 9.909C34.8474 9.74433 34.5137 9.49733 34.2277 9.168C33.9417 8.83 33.7164 8.414 33.5517 7.92C33.3957 7.41733 33.3177 6.83233 33.3177 6.165C33.3177 5.333 33.4131 4.62666 33.6037 4.04599C33.7944 3.45666 34.0501 2.97999 34.3707 2.61599C34.7001 2.25199 35.0727 1.98333 35.4887 1.80999C35.9047 1.63666 36.3381 1.54999 36.7887 1.54999C37.2914 1.54999 37.7334 1.63666 38.1147 1.80999C38.4961 1.97466 38.8254 2.18266 39.1027 2.434L38.5047 3.09699C38.2967 2.89766 38.0454 2.74166 37.7507 2.62899C37.4647 2.50766 37.1657 2.44699 36.8537 2.44699C36.4031 2.44699 35.9871 2.564 35.6057 2.798C35.2244 3.032 34.9124 3.422 34.6697 3.968C34.4357 4.50533 34.3187 5.23766 34.3187 6.165C34.3187 6.84966 34.4011 7.426 34.5657 7.894C34.7391 8.362 34.9861 8.71733 35.3067 8.96C35.6361 9.194 36.0304 9.311 36.4897 9.311C36.8191 9.311 37.1137 9.23733 37.3737 9.09C37.6424 8.934 37.8547 8.72166 38.0107 8.453C38.1667 8.17566 38.2447 7.855 38.2447 7.491C38.2447 6.919 38.0931 6.48566 37.7897 6.191C37.4864 5.88766 37.0487 5.736 36.4767 5.736C36.1474 5.736 35.7921 5.827 35.4107 6.009C35.0294 6.18233 34.6611 6.48133 34.3057 6.906L34.2667 6.061C34.6134 5.71433 34.9904 5.44133 35.3977 5.24199C35.8137 5.03399 36.2384 4.93 36.6717 4.93C37.1831 4.93 37.6337 5.02533 38.0237 5.21599C38.4137 5.40666 38.7171 5.69266 38.9337 6.07399C39.1504 6.45533 39.2587 6.92766 39.2587 7.491C39.2587 8.01966 39.1287 8.48333 38.8687 8.882C38.6174 9.28066 38.2794 9.59266 37.8547 9.818C37.4387 10.0433 36.9837 10.156 36.4897 10.156Z" fill="black"/>
<path d="M41.9967 5.45L41.6327 4.82599C42.066 4.57466 42.3997 4.26266 42.6337 3.88999C42.8763 3.50866 42.9977 3.071 42.9977 2.57699L42.7377 1.56299L43.4527 2.434C43.34 2.55533 43.2143 2.655 43.0757 2.733C42.937 2.811 42.794 2.85 42.6467 2.85C42.378 2.85 42.157 2.76333 41.9837 2.58999C41.8103 2.41666 41.7237 2.19566 41.7237 1.92699C41.7237 1.62366 41.8147 1.38099 41.9967 1.19899C42.1787 1.00833 42.4083 0.912994 42.6857 0.912994C43.0237 0.912994 43.301 1.05166 43.5177 1.32899C43.743 1.60633 43.8557 1.99199 43.8557 2.486C43.8557 3.136 43.691 3.72099 43.3617 4.24099C43.0323 4.75233 42.5773 5.15533 41.9967 5.45Z" fill="black"/>
<path d="M52.7505 10V9.363C53.6865 8.53966 54.4752 7.816 55.1165 7.192C55.7665 6.55933 56.2605 5.99166 56.5985 5.489C56.9365 4.98633 57.1055 4.50533 57.1055 4.04599C57.1055 3.56933 56.9582 3.17933 56.6635 2.87599C56.3688 2.57266 55.9138 2.421 55.2985 2.421C54.9085 2.421 54.5445 2.51633 54.2065 2.70699C53.8772 2.89766 53.5782 3.13599 53.3095 3.42199L52.6985 2.81099C53.0712 2.42966 53.4698 2.12633 53.8945 1.90099C54.3278 1.66699 54.8392 1.54999 55.4285 1.54999C55.9832 1.54999 56.4598 1.65399 56.8585 1.86199C57.2658 2.06133 57.5778 2.34299 57.7945 2.70699C58.0198 3.07099 58.1325 3.49999 58.1325 3.994C58.1325 4.514 57.9722 5.03833 57.6515 5.56699C57.3308 6.09566 56.8802 6.65466 56.2995 7.24399C55.7275 7.82466 55.0645 8.46166 54.3105 9.15499C54.5705 9.12899 54.8305 9.11166 55.0905 9.10299C55.3505 9.08566 55.6062 9.07699 55.8575 9.07699H58.5875V10H52.7505Z" fill="black"/>
<path d="M62.0144 10.156C61.5204 10.156 61.0871 10.104 60.7144 10C60.3418 9.88733 60.0168 9.74433 59.7394 9.571C59.4708 9.39766 59.2324 9.21566 59.0244 9.02499L59.5574 8.323C59.7394 8.48766 59.9388 8.64366 60.1554 8.791C60.3808 8.92966 60.6364 9.04666 60.9224 9.142C61.2084 9.22866 61.5334 9.272 61.8974 9.272C62.2874 9.272 62.6428 9.194 62.9634 9.038C63.2841 8.882 63.5354 8.66533 63.7174 8.38799C63.9081 8.10199 64.0034 7.76399 64.0034 7.37399C64.0034 6.80199 63.8171 6.35566 63.4444 6.035C63.0718 5.71433 62.5778 5.554 61.9624 5.554C61.6158 5.554 61.3211 5.59733 61.0784 5.684C60.8358 5.77066 60.5671 5.89633 60.2724 6.061L59.7004 5.69699L59.9734 1.706H64.6664V2.62899H60.9224L60.7014 5.08599C60.9354 4.98199 61.1694 4.89966 61.4034 4.83899C61.6461 4.77833 61.9234 4.74799 62.2354 4.74799C62.7641 4.74799 63.2451 4.839 63.6784 5.021C64.1118 5.203 64.4541 5.48899 64.7054 5.87899C64.9568 6.26033 65.0824 6.74999 65.0824 7.34799C65.0824 7.94599 64.9351 8.45733 64.6404 8.882C64.3544 9.298 63.9774 9.61433 63.5094 9.831C63.0414 10.0477 62.5431 10.156 62.0144 10.156Z" fill="black"/>
<path d="M66.4814 5.45L66.1173 4.82599C66.5507 4.57466 66.8844 4.26266 67.1184 3.88999C67.361 3.50866 67.4824 3.071 67.4824 2.57699L67.2224 1.56299L67.9374 2.434C67.8247 2.55533 67.699 2.655 67.5603 2.733C67.4217 2.811 67.2787 2.85 67.1313 2.85C66.8627 2.85 66.6417 2.76333 66.4684 2.58999C66.295 2.41666 66.2084 2.19566 66.2084 1.92699C66.2084 1.62366 66.2994 1.38099 66.4814 1.19899C66.6634 1.00833 66.893 0.912994 67.1703 0.912994C67.5083 0.912994 67.7857 1.05166 68.0023 1.32899C68.2277 1.60633 68.3404 1.99199 68.3404 2.486C68.3404 3.136 68.1757 3.72099 67.8464 4.24099C67.517 4.75233 67.062 5.15533 66.4814 5.45ZM69.4714 5.45L69.1074 4.82599C69.5407 4.57466 69.8744 4.26266 70.1084 3.88999C70.351 3.50866 70.4724 3.071 70.4724 2.57699L70.2123 1.56299L70.9274 2.434C70.8147 2.55533 70.689 2.655 70.5504 2.733C70.4117 2.811 70.2687 2.85 70.1214 2.85C69.8527 2.85 69.6317 2.76333 69.4584 2.58999C69.285 2.41666 69.1983 2.19566 69.1983 1.92699C69.1983 1.62366 69.2894 1.38099 69.4714 1.19899C69.6534 1.00833 69.883 0.912994 70.1604 0.912994C70.4984 0.912994 70.7757 1.05166 70.9924 1.32899C71.2177 1.60633 71.3304 1.99199 71.3304 2.486C71.3304 3.136 71.1657 3.72099 70.8363 4.24099C70.507 4.75233 70.052 5.15533 69.4714 5.45Z" fill="black"/>
<path d="M78.8472 10V1.47199H80.0432L82.7732 6.828L83.5922 8.59599H83.6182C83.6009 8.17133 83.5705 7.72933 83.5272 7.26999C83.4925 6.80199 83.4752 6.34266 83.4752 5.892V1.47199H84.5152V10H83.3192L80.5892 4.64399L79.7702 2.87599H79.7442C79.7615 3.30933 79.7875 3.75133 79.8222 4.20199C79.8655 4.65266 79.8872 5.09899 79.8872 5.54099V10H78.8472Z" fill="black"/>
<path d="M87.1361 12.769L86.8371 12.093C87.3918 11.8503 87.8034 11.5427 88.0721 11.17C88.3408 10.806 88.4751 10.3553 88.4751 9.818L88.2281 8.62199L88.9561 9.649C88.8521 9.77033 88.7351 9.85266 88.6051 9.896C88.4838 9.93066 88.3581 9.948 88.2281 9.948C88.0461 9.948 87.8771 9.91333 87.7211 9.844C87.5651 9.766 87.4394 9.65766 87.3441 9.519C87.2574 9.37166 87.2141 9.18966 87.2141 8.97299C87.2141 8.65233 87.3181 8.40966 87.5261 8.245C87.7341 8.07166 87.9768 7.98499 88.2541 7.98499C88.6354 7.98499 88.9258 8.13666 89.1251 8.43999C89.3244 8.73466 89.4241 9.13766 89.4241 9.649C89.4241 10.4117 89.2205 11.053 88.8131 11.573C88.4058 12.1017 87.8468 12.5003 87.1361 12.769Z" fill="black"/>
<path d="M100.204 10C100.239 9.21133 100.312 8.492 100.425 7.842C100.538 7.192 100.702 6.581 100.919 6.009C101.136 5.42833 101.413 4.86499 101.751 4.31899C102.089 3.773 102.492 3.20966 102.96 2.62899H98.176V1.706H104.182V2.369C103.627 2.99299 103.172 3.59099 102.817 4.16299C102.462 4.735 102.18 5.31566 101.972 5.90499C101.764 6.49433 101.608 7.12266 101.504 7.79C101.409 8.44866 101.348 9.18533 101.322 10H100.204Z" fill="black"/>
<path d="M107.934 10.156C107.483 10.156 107.063 10.0737 106.673 9.909C106.292 9.74433 105.958 9.49733 105.672 9.168C105.386 8.83 105.161 8.414 104.996 7.92C104.84 7.41733 104.762 6.83233 104.762 6.165C104.762 5.333 104.857 4.62666 105.048 4.04599C105.239 3.45666 105.494 2.97999 105.815 2.61599C106.144 2.25199 106.517 1.98333 106.933 1.80999C107.349 1.63666 107.782 1.54999 108.233 1.54999C108.736 1.54999 109.178 1.63666 109.559 1.80999C109.94 1.97466 110.27 2.18266 110.547 2.434L109.949 3.09699C109.741 2.89766 109.49 2.74166 109.195 2.62899C108.909 2.50766 108.61 2.44699 108.298 2.44699C107.847 2.44699 107.431 2.564 107.05 2.798C106.669 3.032 106.357 3.422 106.114 3.968C105.88 4.50533 105.763 5.23766 105.763 6.165C105.763 6.84966 105.845 7.426 106.01 7.894C106.183 8.362 106.43 8.71733 106.751 8.96C107.08 9.194 107.475 9.311 107.934 9.311C108.263 9.311 108.558 9.23733 108.818 9.09C109.087 8.934 109.299 8.72166 109.455 8.453C109.611 8.17566 109.689 7.855 109.689 7.491C109.689 6.919 109.537 6.48566 109.234 6.191C108.931 5.88766 108.493 5.736 107.921 5.736C107.592 5.736 107.236 5.827 106.855 6.009C106.474 6.18233 106.105 6.48133 105.75 6.906L105.711 6.061C106.058 5.71433 106.435 5.44133 106.842 5.24199C107.258 5.03399 107.683 4.93 108.116 4.93C108.627 4.93 109.078 5.02533 109.468 5.21599C109.858 5.40666 110.161 5.69266 110.378 6.07399C110.595 6.45533 110.703 6.92766 110.703 7.491C110.703 8.01966 110.573 8.48333 110.313 8.882C110.062 9.28066 109.724 9.59266 109.299 9.818C108.883 10.0433 108.428 10.156 107.934 10.156Z" fill="black"/>
<path d="M114.156 4.423C113.87 4.423 113.601 4.358 113.35 4.22799C113.107 4.08933 112.908 3.89433 112.752 3.64299C112.604 3.39166 112.531 3.10133 112.531 2.77199C112.531 2.43399 112.604 2.13933 112.752 1.888C112.908 1.63666 113.107 1.44166 113.35 1.30299C113.601 1.16433 113.87 1.09499 114.156 1.09499C114.45 1.09499 114.719 1.16433 114.962 1.30299C115.213 1.44166 115.412 1.63666 115.56 1.888C115.716 2.13933 115.794 2.43399 115.794 2.77199C115.794 3.10133 115.716 3.39166 115.56 3.64299C115.412 3.89433 115.213 4.08933 114.962 4.22799C114.719 4.358 114.45 4.423 114.156 4.423ZM114.156 3.825C114.45 3.825 114.689 3.72533 114.871 3.52599C115.053 3.32666 115.144 3.07533 115.144 2.77199C115.144 2.45133 115.053 2.19133 114.871 1.99199C114.689 1.79266 114.45 1.69299 114.156 1.69299C113.87 1.69299 113.636 1.79266 113.454 1.99199C113.272 2.19133 113.181 2.45133 113.181 2.77199C113.181 3.07533 113.272 3.32666 113.454 3.52599C113.636 3.72533 113.87 3.825 114.156 3.825Z" fill="black"/>
<path d="M124.195 10V9.363C125.131 8.53966 125.919 7.816 126.561 7.192C127.211 6.55933 127.705 5.99166 128.043 5.489C128.381 4.98633 128.55 4.50533 128.55 4.04599C128.55 3.56933 128.402 3.17933 128.108 2.87599C127.813 2.57266 127.358 2.421 126.743 2.421C126.353 2.421 125.989 2.51633 125.651 2.70699C125.321 2.89766 125.022 3.13599 124.754 3.42199L124.143 2.81099C124.515 2.42966 124.914 2.12633 125.339 1.90099C125.772 1.66699 126.283 1.54999 126.873 1.54999C127.427 1.54999 127.904 1.65399 128.303 1.86199C128.71 2.06133 129.022 2.34299 129.239 2.70699C129.464 3.07099 129.577 3.49999 129.577 3.994C129.577 4.514 129.416 5.03833 129.096 5.56699C128.775 6.09566 128.324 6.65466 127.744 7.24399C127.172 7.82466 126.509 8.46166 125.755 9.15499C126.015 9.12899 126.275 9.11166 126.535 9.10299C126.795 9.08566 127.05 9.07699 127.302 9.07699H130.032V10H124.195Z" fill="black"/>
<path d="M134.525 10V4.27999C134.533 4.05466 134.542 3.81199 134.551 3.55199C134.568 3.28333 134.581 3.03633 134.59 2.81099H134.525C134.395 3.01033 134.256 3.21399 134.109 3.42199C133.961 3.62133 133.818 3.82066 133.68 4.02L131.431 6.854H136.826V7.712H130.248V6.99699L134.395 1.706H135.539V10H134.525Z" fill="black"/>
<path d="M139.42 5.45L139.056 4.82599C139.49 4.57466 139.823 4.26266 140.057 3.88999C140.3 3.50866 140.421 3.071 140.421 2.57699L140.161 1.56299L140.876 2.434C140.764 2.55533 140.638 2.655 140.499 2.733C140.361 2.811 140.218 2.85 140.07 2.85C139.802 2.85 139.581 2.76333 139.407 2.58999C139.234 2.41666 139.147 2.19566 139.147 1.92699C139.147 1.62366 139.238 1.38099 139.42 1.19899C139.602 1.00833 139.832 0.912994 140.109 0.912994C140.447 0.912994 140.725 1.05166 140.941 1.32899C141.167 1.60633 141.279 1.99199 141.279 2.486C141.279 3.136 141.115 3.72099 140.785 4.24099C140.456 4.75233 140.001 5.15533 139.42 5.45Z" fill="black"/>
<path d="M150.174 10V9.363C151.11 8.53966 151.899 7.816 152.54 7.192C153.19 6.55933 153.684 5.99166 154.022 5.489C154.36 4.98633 154.529 4.50533 154.529 4.04599C154.529 3.56933 154.382 3.17933 154.087 2.87599C153.793 2.57266 153.338 2.421 152.722 2.421C152.332 2.421 151.968 2.51633 151.63 2.70699C151.301 2.89766 151.002 3.13599 150.733 3.42199L150.122 2.81099C150.495 2.42966 150.894 2.12633 151.318 1.90099C151.752 1.66699 152.263 1.54999 152.852 1.54999C153.407 1.54999 153.884 1.65399 154.282 1.86199C154.69 2.06133 155.002 2.34299 155.218 2.70699C155.444 3.07099 155.556 3.49999 155.556 3.994C155.556 4.514 155.396 5.03833 155.075 5.56699C154.755 6.09566 154.304 6.65466 153.723 7.24399C153.151 7.82466 152.488 8.46166 151.734 9.15499C151.994 9.12899 152.254 9.11166 152.514 9.10299C152.774 9.08566 153.03 9.07699 153.281 9.07699H156.011V10H150.174Z" fill="black"/>
<path d="M159.893 10.156C159.443 10.156 159.022 10.0737 158.632 9.909C158.251 9.74433 157.917 9.49733 157.631 9.168C157.345 8.83 157.12 8.414 156.955 7.92C156.799 7.41733 156.721 6.83233 156.721 6.165C156.721 5.333 156.817 4.62666 157.007 4.04599C157.198 3.45666 157.454 2.97999 157.774 2.61599C158.104 2.25199 158.476 1.98333 158.892 1.80999C159.308 1.63666 159.742 1.54999 160.192 1.54999C160.695 1.54999 161.137 1.63666 161.518 1.80999C161.9 1.97466 162.229 2.18266 162.506 2.434L161.908 3.09699C161.7 2.89766 161.449 2.74166 161.154 2.62899C160.868 2.50766 160.569 2.44699 160.257 2.44699C159.807 2.44699 159.391 2.564 159.009 2.798C158.628 3.032 158.316 3.422 158.073 3.968C157.839 4.50533 157.722 5.23766 157.722 6.165C157.722 6.84966 157.805 7.426 157.969 7.894C158.143 8.362 158.39 8.71733 158.71 8.96C159.04 9.194 159.434 9.311 159.893 9.311C160.223 9.311 160.517 9.23733 160.777 9.09C161.046 8.934 161.258 8.72166 161.414 8.453C161.57 8.17566 161.648 7.855 161.648 7.491C161.648 6.919 161.497 6.48566 161.193 6.191C160.89 5.88766 160.452 5.736 159.88 5.736C159.551 5.736 159.196 5.827 158.814 6.009C158.433 6.18233 158.065 6.48133 157.709 6.906L157.67 6.061C158.017 5.71433 158.394 5.44133 158.801 5.24199C159.217 5.03399 159.642 4.93 160.075 4.93C160.587 4.93 161.037 5.02533 161.427 5.21599C161.817 5.40666 162.121 5.69266 162.337 6.07399C162.554 6.45533 162.662 6.92766 162.662 7.491C162.662 8.01966 162.532 8.48333 162.272 8.882C162.021 9.28066 161.683 9.59266 161.258 9.818C160.842 10.0433 160.387 10.156 159.893 10.156Z" fill="black"/>
<path d="M165.4 5.45L165.036 4.82599C165.47 4.57466 165.803 4.26266 166.037 3.88999C166.28 3.50866 166.401 3.071 166.401 2.57699L166.141 1.56299L166.856 2.434C166.744 2.55533 166.618 2.655 166.479 2.733C166.341 2.811 166.198 2.85 166.05 2.85C165.782 2.85 165.561 2.76333 165.387 2.58999C165.214 2.41666 165.127 2.19566 165.127 1.92699C165.127 1.62366 165.218 1.38099 165.4 1.19899C165.582 1.00833 165.812 0.912994 166.089 0.912994C166.427 0.912994 166.705 1.05166 166.921 1.32899C167.147 1.60633 167.259 1.99199 167.259 2.486C167.259 3.136 167.095 3.72099 166.765 4.24099C166.436 4.75233 165.981 5.15533 165.4 5.45Z" fill="black"/>
<path d="M176.635 10L175.335 1.459H176.557L177.181 6.81499C177.207 7.04899 177.229 7.26566 177.246 7.465C177.272 7.65566 177.294 7.85499 177.311 8.06299C177.328 8.26233 177.341 8.505 177.35 8.791H177.389C177.441 8.505 177.489 8.26233 177.532 8.06299C177.575 7.85499 177.619 7.65566 177.662 7.465C177.705 7.27433 177.753 7.062 177.805 6.828L178.637 3.65599H179.677L180.483 6.828C180.544 7.062 180.596 7.27433 180.639 7.465C180.682 7.65566 180.721 7.85499 180.756 8.06299C180.799 8.26233 180.847 8.505 180.899 8.791H180.951C180.968 8.505 180.981 8.26233 180.99 8.06299C181.007 7.85499 181.025 7.65566 181.042 7.465C181.059 7.27433 181.081 7.062 181.107 6.828L181.705 1.459H182.875L181.627 10H180.275L179.443 6.568C179.382 6.308 179.326 6.05233 179.274 5.80099C179.222 5.54966 179.174 5.29399 179.131 5.03399H179.092C179.049 5.29399 179.005 5.54966 178.962 5.80099C178.919 6.05233 178.862 6.308 178.793 6.568L177.961 10H176.635Z" fill="black"/>
</svg>
