<svg width="163" height="16" viewBox="0 0 163 16" fill="none" xmlns="http://www.w3.org/2000/svg">
<path d="M1.45278 13V4.498H3.03878L5.28778 9.269L6.05478 11.089H6.09378C6.06778 10.6557 6.02445 10.1833 5.96378 9.672C5.91178 9.16067 5.88578 8.66667 5.88578 8.19V4.498H7.32878V13H5.74278L3.49378 8.216L2.72678 6.409H2.68778C2.71378 6.85967 2.75278 7.33633 2.80478 7.839C2.86545 8.333 2.89578 8.814 2.89578 9.282V13H1.45278ZM11.9257 13.156C11.267 13.156 10.6864 12.9827 10.1837 12.636C9.68104 12.2893 9.28671 11.7867 9.00071 11.128C8.72337 10.4693 8.58471 9.66333 8.58471 8.71C8.58471 7.78267 8.72337 6.994 9.00071 6.344C9.28671 5.68533 9.68104 5.187 10.1837 4.849C10.6864 4.511 11.267 4.342 11.9257 4.342C12.5844 4.342 13.165 4.511 13.6677 4.849C14.1704 5.187 14.5604 5.68533 14.8377 6.344C15.1237 6.994 15.2667 7.78267 15.2667 8.71C15.2667 9.66333 15.1237 10.4693 14.8377 11.128C14.5604 11.7867 14.1704 12.2893 13.6677 12.636C13.165 12.9827 12.5844 13.156 11.9257 13.156ZM11.9257 11.843C12.2897 11.843 12.606 11.7217 12.8747 11.479C13.1434 11.2363 13.3514 10.881 13.4987 10.413C13.646 9.945 13.7197 9.37733 13.7197 8.71C13.7197 8.06 13.646 7.50967 13.4987 7.059C13.3514 6.59967 13.1434 6.253 12.8747 6.019C12.606 5.77633 12.2897 5.655 11.9257 5.655C11.5617 5.655 11.2454 5.77633 10.9767 6.019C10.708 6.253 10.5 6.59967 10.3527 7.059C10.2054 7.50967 10.1317 8.06 10.1317 8.71C10.1317 9.37733 10.2054 9.945 10.3527 10.413C10.5 10.881 10.708 11.2363 10.9767 11.479C11.2454 11.7217 11.5617 11.843 11.9257 11.843ZM19.4736 13.156C19.0056 13.156 18.5853 13.0867 18.2126 12.948C17.8486 12.8093 17.5366 12.6013 17.2766 12.324C17.0253 12.0467 16.8303 11.6957 16.6916 11.271C16.5616 10.8377 16.4966 10.3307 16.4966 9.75V4.498H18.0046V9.867C18.0046 10.3263 18.061 10.7033 18.1736 10.998C18.295 11.284 18.4683 11.4963 18.6936 11.635C18.919 11.7737 19.179 11.843 19.4736 11.843C19.7856 11.843 20.05 11.7737 20.2666 11.635C20.492 11.4963 20.6653 11.284 20.7866 10.998C20.9166 10.7033 20.9816 10.3263 20.9816 9.867V4.498H22.4246V9.75C22.4246 10.3307 22.3596 10.8377 22.2296 11.271C22.0996 11.6957 21.9046 12.0467 21.6446 12.324C21.3933 12.6013 21.0856 12.8093 20.7216 12.948C20.3576 13.0867 19.9416 13.156 19.4736 13.156ZM24.0575 13V4.498H25.6435L27.8925 9.269L28.6595 11.089H28.6985C28.6725 10.6557 28.6292 10.1833 28.5685 9.672C28.5165 9.16067 28.4905 8.66667 28.4905 8.19V4.498H29.9335V13H28.3475L26.0985 8.216L25.3315 6.409H25.2925C25.3185 6.85967 25.3575 7.33633 25.4095 7.839C25.4702 8.333 25.5005 8.814 25.5005 9.282V13H24.0575ZM40.9214 14.976V3.796H44.6524V4.615H42.0914V14.157H44.6524V14.976H40.9214ZM53.4172 13.156C52.8886 13.156 52.3902 13.0607 51.9222 12.87C51.4629 12.6793 51.0556 12.3977 50.7002 12.025C50.3536 11.6523 50.0806 11.193 49.8812 10.647C49.6906 10.101 49.5952 9.477 49.5952 8.775C49.5952 7.84767 49.7642 7.05467 50.1022 6.396C50.4489 5.72867 50.9169 5.22167 51.5062 4.875C52.1042 4.51967 52.7759 4.342 53.5212 4.342C54.0499 4.342 54.5222 4.45033 54.9382 4.667C55.3542 4.88367 55.6922 5.13067 55.9522 5.408L55.1202 6.344C54.9122 6.12733 54.6782 5.95833 54.4182 5.837C54.1582 5.71567 53.8592 5.655 53.5212 5.655C53.0532 5.655 52.6372 5.78067 52.2732 6.032C51.9179 6.27467 51.6406 6.62567 51.4412 7.085C51.2419 7.54433 51.1422 8.09467 51.1422 8.736C51.1422 9.37733 51.2419 9.932 51.4412 10.4C51.6406 10.868 51.9222 11.2277 52.2862 11.479C52.6502 11.7217 53.0749 11.843 53.5602 11.843C53.9156 11.843 54.2319 11.7693 54.5092 11.622C54.7866 11.466 55.0466 11.258 55.2892 10.998L56.1212 11.921C55.7832 12.3197 55.3889 12.6273 54.9382 12.844C54.4876 13.052 53.9806 13.156 53.4172 13.156ZM60.5181 14.976V14.157H63.0791V4.615H60.5181V3.796H64.2491V14.976H60.5181Z" fill="black"/>
<path d="M85.756 14.976V3.796H89.487V4.615H86.926V14.157H89.487V14.976H85.756ZM97.5238 13V4.498H100.319C100.943 4.498 101.498 4.58033 101.983 4.745C102.468 4.90967 102.85 5.18267 103.127 5.564C103.413 5.94533 103.556 6.46533 103.556 7.124C103.556 7.748 103.413 8.26367 103.127 8.671C102.85 9.07833 102.464 9.38167 101.97 9.581C101.485 9.78033 100.934 9.88 100.319 9.88H99.0318V13H97.5238ZM99.0318 8.671H100.202C100.835 8.671 101.303 8.541 101.606 8.281C101.918 8.021 102.074 7.63533 102.074 7.124C102.074 6.58667 101.914 6.21833 101.593 6.019C101.281 5.811 100.817 5.707 100.202 5.707H99.0318V8.671ZM105.007 13V11.726H107.061V5.772H105.007V4.498H110.623V5.772H108.569V11.726H110.623V13H105.007ZM112.464 9.256V8.164H118.236V9.256H112.464ZM120.077 13V4.498H122.911C123.5 4.498 124.029 4.576 124.497 4.732C124.973 4.888 125.35 5.15233 125.628 5.525C125.905 5.889 126.044 6.38733 126.044 7.02C126.044 7.62667 125.905 8.125 125.628 8.515C125.35 8.905 124.973 9.19533 124.497 9.386C124.029 9.57667 123.5 9.672 122.911 9.672H121.585V13H120.077ZM121.585 8.476H122.755C123.344 8.476 123.79 8.35467 124.094 8.112C124.406 7.86933 124.562 7.50533 124.562 7.02C124.562 6.53467 124.406 6.19667 124.094 6.006C123.79 5.80667 123.344 5.707 122.755 5.707H121.585V8.476ZM122.638 9.269L123.73 8.372L126.382 13H124.679L122.638 9.269ZM126.78 13L129.536 4.498H131.304L134.06 13H132.461L131.174 8.476C131.052 8.02533 130.922 7.56167 130.784 7.085C130.654 6.60833 130.532 6.136 130.42 5.668H130.368C130.246 6.136 130.121 6.60833 129.991 7.085C129.869 7.56167 129.744 8.02533 129.614 8.476L128.314 13H126.78ZM128.405 10.699V9.516H132.396V10.699H128.405ZM137.2 13V5.759H134.522V4.498H141.386V5.759H138.708V13H137.2ZM142.928 13V4.498H148.375V5.772H144.436V7.943H147.777V9.217H144.436V11.726H148.505V13H142.928ZM156.282 14.976V14.157H158.843V4.615H156.282V3.796H160.013V14.976H156.282Z" fill="black"/>
</svg>
