<svg width="62" height="20" viewBox="0 0 62 20" fill="none" xmlns="http://www.w3.org/2000/svg">
<g opacity="0.8" clip-path="url(#clip0_138_7601)">
<path d="M32.5491 1.11151C32.7735 1.11151 32.902 1.11151 33.0306 1.11151C35.7024 1.11896 38.3748 1.10693 41.0461 1.14531C41.9395 1.15792 42.8496 1.21235 43.7196 1.39912C45.2868 1.73601 45.9524 2.82802 45.712 4.41276C45.506 5.77176 44.8438 6.87523 43.8659 7.81083C42.9908 8.64789 41.9659 9.2638 40.8882 9.79949C40.7155 9.88543 40.5422 9.96908 40.3287 10.0739C40.4665 10.2745 40.5801 10.4417 40.6954 10.6079C41.4271 11.6655 41.7547 12.8905 42.1329 14.0925C42.4623 15.1387 42.8278 16.1648 43.4946 17.0551C43.8751 17.5628 43.9009 17.5742 44.4822 17.3158C44.7198 17.2098 44.9511 17.0895 45.1846 16.9743C45.6265 16.7561 45.6558 16.7687 45.8382 17.2923C44.4363 18.1746 43.0281 19.0604 41.5332 20.0006C41.2033 19.4534 40.8222 18.9527 40.5807 18.3924C40.1704 17.439 39.8278 16.4547 39.4949 15.4704C39.0565 14.175 38.6416 12.8727 37.7946 11.7664C37.7401 11.6948 37.6816 11.6266 37.603 11.5298C37.0171 11.8179 36.4312 12.0958 35.8579 12.3983C35.7655 12.447 35.6938 12.5971 35.6743 12.7111C35.416 14.1973 35.1532 15.683 34.9248 17.1737C34.7814 18.1088 35.058 18.4279 36.006 18.5333C36.0318 18.5362 36.0576 18.5396 36.0834 18.5425C36.7273 18.6043 36.7807 18.672 36.729 19.3721H29.4739C29.5404 18.7281 29.7619 18.5047 30.3364 18.4726C31.4571 18.4096 31.8668 18.0921 32.0688 16.9996C32.622 14.0071 33.1499 11.0101 33.6853 8.0148C33.9413 6.58132 34.1909 5.14612 34.4434 3.71206C34.4526 3.66107 34.4635 3.61008 34.4709 3.55851C34.6551 2.30894 34.3303 1.90044 33.065 1.86549C32.5204 1.8506 32.7316 1.42491 32.5491 1.11266V1.11151ZM35.9383 11.1247C36.0232 11.1109 36.0639 11.1132 36.0961 11.0978C37.5335 10.4228 38.9773 9.76053 40.4033 9.06327C41.0656 8.73956 41.6147 8.25887 42.0342 7.6401C43.4132 5.60504 42.4841 3.45367 40.0573 3.13913C39.2866 3.03944 38.4982 3.07725 37.7183 3.03772C37.4234 3.02282 37.3189 3.13913 37.2701 3.42846C36.9293 5.45436 36.5689 7.47681 36.2154 9.50099C36.1225 10.035 36.0324 10.5701 35.9377 11.1253L35.9383 11.1247Z" fill="white"/>
<path d="M0 19.3761C0.137723 19.0965 0.235277 18.8696 0.360375 18.6588C0.403987 18.5849 0.512444 18.5459 0.596226 18.5012C0.626639 18.4852 0.673121 18.4984 0.712142 18.4972C2.11462 18.456 2.47901 18.1729 2.72462 16.7979C3.49415 12.4825 4.24531 8.16376 5.00049 3.84613C5.04984 3.56539 5.09173 3.2795 5.09632 2.99475C5.1078 2.32671 4.83752 2.01331 4.18506 1.89414C4.10816 1.88039 4.03069 1.87008 3.95265 1.86492C3.53718 1.83627 3.29158 1.59239 3.21583 1.13328C3.34265 1.12583 3.46603 1.11151 3.5894 1.11151C6.24918 1.11781 8.90895 1.10693 11.5682 1.14589C12.317 1.15677 13.0843 1.23469 13.8061 1.42261C15.2941 1.81049 15.9994 2.8263 15.9483 4.36291C15.8863 6.2324 14.947 7.59828 13.389 8.53273C11.3811 9.73704 9.21825 10.6096 6.97796 11.2834C6.63997 11.3848 6.46035 11.5183 6.40067 11.8924C6.12867 13.5998 5.82338 15.302 5.53072 17.0059C5.52843 17.0185 5.529 17.0316 5.52843 17.0448C5.46817 18.2967 5.69083 18.5339 6.94927 18.5631C7.03879 18.5654 7.12831 18.5746 7.25111 18.5832C7.29759 18.8398 7.34293 19.0896 7.39515 19.3761H0ZM6.6744 10.3982C6.70711 10.4314 6.74039 10.4647 6.7731 10.4979C8.01892 10.0459 9.26244 9.58693 10.5111 9.14291C11.8499 8.66737 12.5477 7.66187 12.8427 6.33553C13.2277 4.60297 12.5161 3.35799 10.7969 2.93287C10.0406 2.74552 9.22571 2.79307 8.43725 2.73463C8.13828 2.71229 8.01547 2.83948 7.96268 3.14944C7.66084 4.91866 7.33202 6.6833 7.01469 8.44966C6.8982 9.09879 6.78802 9.7485 6.67497 10.3982H6.6744Z" fill="white"/>
<path d="M24.8808 19.3761H17.5964C17.7393 18.7246 17.8747 18.6026 18.495 18.5499C19.6175 18.4542 19.9801 18.1804 20.1994 17.0872C20.4983 15.5959 20.7445 14.093 21.0004 12.5931C21.0251 12.4493 20.9878 12.2809 20.9356 12.1405C19.874 9.30217 18.8135 6.46327 17.7341 3.63183C17.473 2.94775 17.1522 2.30549 16.3586 2.03163C16.1985 1.97605 16.1612 1.5664 16.0453 1.26389H23.0014C22.8287 1.93365 22.7289 2.01558 22.0994 2.1147C21.871 2.15022 21.6391 2.21783 21.4308 2.31637C20.9264 2.55643 20.7055 2.97926 20.8851 3.50464C21.3143 4.75822 21.7734 6.00264 22.2497 7.23903C22.5619 8.04916 22.9251 8.83923 23.2964 9.71124C23.8938 8.92632 24.4435 8.20671 24.9904 7.48539C26.3745 5.65945 27.7563 3.83121 29.1439 2.00756C29.2437 1.87579 29.3619 1.73828 29.5031 1.66036C30.485 1.12181 31.4754 0.598144 32.4636 0.0716168C32.5049 0.0492724 32.5554 0.0429701 32.7 0C32.3913 0.44116 32.1394 0.810129 31.8788 1.17337C29.3069 4.75937 26.7297 8.3425 24.1675 11.9359C23.9793 12.2001 23.8352 12.5272 23.775 12.8446C23.515 14.2116 23.2935 15.5861 23.06 16.9583C23.0359 17.0992 23.0152 17.2419 23.0072 17.384C22.9659 18.1299 23.2218 18.4313 23.9672 18.5224C24.0447 18.5321 24.1227 18.5419 24.2002 18.5488C24.8664 18.6072 24.89 18.6341 24.8802 19.3766L24.8808 19.3761Z" fill="white"/>
<path d="M54.9262 19.3761H47.6034C47.7819 18.6794 47.8794 18.594 48.5169 18.5591C49.5998 18.4995 50.0216 18.1872 50.2316 17.105C50.7412 14.4752 51.2186 11.8391 51.6874 9.20191C52.022 7.31982 52.3221 5.432 52.6372 3.54647C52.667 3.36772 52.694 3.18839 52.7296 2.96094C52.5677 2.95177 52.4312 2.93802 52.2946 2.93744C51.2387 2.92885 50.1823 2.94948 49.1281 2.90708C48.3041 2.87385 47.523 3.00677 46.7679 3.33965C46.5578 2.99818 46.6032 2.77989 46.9394 2.58738C47.3681 2.34159 47.7945 2.07976 48.1767 1.7698C48.7356 1.31719 49.3444 1.20088 50.0543 1.20776C53.3252 1.23869 56.5967 1.22953 59.8682 1.21291C60.3956 1.21005 60.9229 1.10062 61.4497 1.03358C61.6006 1.01468 61.7481 0.971134 61.9013 0.938477C62.0689 1.28396 62.0408 1.50282 61.6827 1.68329C60.974 2.0408 60.2917 2.45045 59.5887 2.81999C59.4367 2.9002 59.2438 2.93343 59.0694 2.93515C58.0141 2.94547 56.9582 2.95005 55.9023 2.93401C55.6189 2.92942 55.5276 3.02625 55.4806 3.29725C54.6887 7.87156 53.8847 12.4436 53.0882 17.0167C53.0526 17.2201 53.0452 17.4315 53.0538 17.6384C53.075 18.1397 53.3241 18.4181 53.8256 18.5213C53.9398 18.5448 54.0569 18.5625 54.1733 18.5677C54.6466 18.5891 54.8979 18.8587 54.9274 19.3767L54.9262 19.3761Z" fill="white"/>
</g>
<defs>
<clipPath id="clip0_138_7601">
<rect width="62" height="20" fill="white"/>
</clipPath>
</defs>
</svg>
