<svg width="39" height="45" viewBox="0 0 39 45" fill="none" xmlns="http://www.w3.org/2000/svg">
<path d="M21.0983 5.39171C21.6951 5.14286 21.9153 4.18203 21.9508 3.73272H7.03279L7.56557 5.28802C9.1 5.86866 9.90984 7.11982 10.123 7.67281L16.0902 22.9147L0 45L8.09836 40.8525L18.2213 27.9954L21.7377 37.3272C21.9082 38.9862 19.3224 39.7465 18.0082 39.9194C17.1557 40.3341 17.0137 41.1982 17.0492 41.5783H31.9672L31.541 40.2304C29.7508 39.4839 28.9481 38.1912 28.7705 37.6382L22.6967 22.1889L39 0L30.582 4.35484L20.6721 17.212L17.3688 8.29493C17.1557 5.28802 20.3524 5.70276 21.0983 5.39171Z" fill="black"/>
</svg>
